<svg width="1500" height="237" viewBox="0 0 1500 237" fill="none" xmlns="http://www.w3.org/2000/svg">
<rect width="1500" height="237" fill="#1E1E1E"/>
<g clip-path="url(#clip0_0_1)">
<rect width="1500" height="237" fill="#0E1117"/>
<path d="M101.435 14.872H106.907V35.14H114.503V14.872H119.975V35.14H127.499V14.872H132.971V40H101.435V14.872ZM152.205 40C151.245 40 150.441 39.7 149.793 39.1C149.169 38.5 148.773 37.696 148.605 36.688H148.389C148.101 37.912 147.465 38.848 146.481 39.496C145.497 40.12 144.285 40.432 142.845 40.432C140.949 40.432 139.497 39.928 138.489 38.92C137.481 37.912 136.977 36.58 136.977 34.924C136.977 32.932 137.697 31.456 139.137 30.496C140.601 29.512 142.581 29.02 145.077 29.02H148.065V27.832C148.065 26.92 147.825 26.2 147.345 25.672C146.865 25.12 146.061 24.844 144.933 24.844C143.877 24.844 143.037 25.072 142.413 25.528C141.789 25.984 141.273 26.5 140.865 27.076L137.697 24.268C138.465 23.14 139.425 22.264 140.577 21.64C141.753 20.992 143.337 20.668 145.329 20.668C148.017 20.668 150.033 21.256 151.377 22.432C152.721 23.608 153.393 25.324 153.393 27.58V35.86H155.157V40H152.205ZM144.825 36.724C145.713 36.724 146.469 36.532 147.093 36.148C147.741 35.764 148.065 35.14 148.065 34.276V32.044H145.473C143.385 32.044 142.341 32.752 142.341 34.168V34.708C142.341 35.404 142.557 35.92 142.989 36.256C143.421 36.568 144.033 36.724 144.825 36.724ZM158.733 21.1H171.513V25.24H164.061V40H158.733V21.1ZM184.137 40V35.644H190.905V18.796H190.581L185.469 25.492L182.013 22.792L188.025 14.872H196.305V35.644H201.633V40H184.137Z" fill="white"/>
<path d="M397.435 14.872H402.907V35.14H410.503V14.872H415.975V35.14H423.499V14.872H428.971V40H397.435V14.872ZM448.205 40C447.245 40 446.441 39.7 445.793 39.1C445.169 38.5 444.773 37.696 444.605 36.688H444.389C444.101 37.912 443.465 38.848 442.481 39.496C441.497 40.12 440.285 40.432 438.845 40.432C436.949 40.432 435.497 39.928 434.489 38.92C433.481 37.912 432.977 36.58 432.977 34.924C432.977 32.932 433.697 31.456 435.137 30.496C436.601 29.512 438.581 29.02 441.077 29.02H444.065V27.832C444.065 26.92 443.825 26.2 443.345 25.672C442.865 25.12 442.061 24.844 440.933 24.844C439.877 24.844 439.037 25.072 438.413 25.528C437.789 25.984 437.273 26.5 436.865 27.076L433.697 24.268C434.465 23.14 435.425 22.264 436.577 21.64C437.753 20.992 439.337 20.668 441.329 20.668C444.017 20.668 446.033 21.256 447.377 22.432C448.721 23.608 449.393 25.324 449.393 27.58V35.86H451.157V40H448.205ZM440.825 36.724C441.713 36.724 442.469 36.532 443.093 36.148C443.741 35.764 444.065 35.14 444.065 34.276V32.044H441.473C439.385 32.044 438.341 32.752 438.341 34.168V34.708C438.341 35.404 438.557 35.92 438.989 36.256C439.421 36.568 440.033 36.724 440.825 36.724ZM454.733 21.1H467.513V25.24H460.061V40H454.733V21.1ZM496.589 40H478.805V35.068L486.545 28.444C487.241 27.844 487.829 27.304 488.309 26.824C488.789 26.32 489.173 25.84 489.461 25.384C489.773 24.904 489.989 24.436 490.109 23.98C490.253 23.524 490.325 23.032 490.325 22.504V22C490.325 21.52 490.229 21.1 490.037 20.74C489.845 20.38 489.593 20.08 489.281 19.84C488.969 19.6 488.609 19.42 488.201 19.3C487.817 19.18 487.421 19.12 487.013 19.12C486.413 19.12 485.885 19.216 485.429 19.408C484.997 19.6 484.613 19.864 484.277 20.2C483.965 20.512 483.701 20.884 483.485 21.316C483.269 21.724 483.101 22.168 482.981 22.648L478.265 20.848C478.553 19.984 478.949 19.168 479.453 18.4C479.957 17.608 480.581 16.924 481.325 16.348C482.093 15.748 482.993 15.28 484.025 14.944C485.057 14.608 486.221 14.44 487.517 14.44C488.885 14.44 490.097 14.632 491.153 15.016C492.209 15.4 493.097 15.928 493.817 16.6C494.561 17.272 495.125 18.076 495.509 19.012C495.893 19.924 496.085 20.92 496.085 22C496.085 23.08 495.905 24.064 495.545 24.952C495.185 25.84 494.693 26.68 494.069 27.472C493.469 28.24 492.761 28.972 491.945 29.668C491.129 30.364 490.277 31.072 489.389 31.792L484.709 35.464H496.589V40Z" fill="white"/>
<path d="M119.576 203.192C118.701 203.192 117.933 203.032 117.272 202.712C116.621 202.392 116.061 201.939 115.592 201.352L116.824 200.216C117.165 200.653 117.554 200.989 117.992 201.224C118.44 201.459 118.968 201.576 119.576 201.576C120.312 201.576 120.877 201.437 121.272 201.16C121.666 200.883 121.864 200.461 121.864 199.896V199.72C121.864 199.208 121.698 198.813 121.368 198.536C121.037 198.259 120.52 198.12 119.816 198.12H118.024V196.52H119.72C120.381 196.52 120.866 196.387 121.176 196.12C121.485 195.843 121.64 195.432 121.64 194.888V194.728C121.64 194.248 121.474 193.885 121.144 193.64C120.824 193.384 120.333 193.256 119.672 193.256C119.096 193.256 118.594 193.363 118.168 193.576C117.752 193.779 117.41 194.056 117.144 194.408L115.912 193.368C116.349 192.824 116.872 192.403 117.48 192.104C118.088 191.795 118.818 191.64 119.672 191.64C120.93 191.64 121.89 191.912 122.552 192.456C123.224 193 123.56 193.731 123.56 194.648C123.56 195.416 123.352 196.003 122.936 196.408C122.53 196.813 122.002 197.069 121.352 197.176V197.256C121.672 197.288 121.976 197.363 122.264 197.48C122.562 197.597 122.824 197.763 123.048 197.976C123.272 198.179 123.448 198.435 123.576 198.744C123.714 199.043 123.784 199.4 123.784 199.816C123.784 200.317 123.688 200.776 123.496 201.192C123.304 201.608 123.026 201.965 122.664 202.264C122.301 202.563 121.858 202.792 121.336 202.952C120.813 203.112 120.226 203.192 119.576 203.192ZM131.97 203C131.511 203 131.159 202.872 130.914 202.616C130.668 202.349 130.519 202.013 130.466 201.608H130.386C130.226 202.131 129.932 202.525 129.506 202.792C129.079 203.059 128.562 203.192 127.954 203.192C127.09 203.192 126.423 202.968 125.954 202.52C125.495 202.072 125.266 201.469 125.266 200.712C125.266 199.88 125.564 199.256 126.162 198.84C126.77 198.424 127.655 198.216 128.818 198.216H130.322V197.512C130.322 197 130.183 196.605 129.906 196.328C129.628 196.051 129.196 195.912 128.61 195.912C128.119 195.912 127.719 196.019 127.41 196.232C127.1 196.445 126.839 196.717 126.626 197.048L125.586 196.104C125.863 195.635 126.252 195.251 126.754 194.952C127.255 194.643 127.911 194.488 128.722 194.488C129.799 194.488 130.626 194.739 131.202 195.24C131.778 195.741 132.066 196.461 132.066 197.4V201.576H132.946V203H131.97ZM128.45 201.864C128.994 201.864 129.442 201.747 129.794 201.512C130.146 201.267 130.322 200.941 130.322 200.536V199.336H128.85C127.644 199.336 127.042 199.709 127.042 200.456V200.744C127.042 201.117 127.164 201.4 127.41 201.592C127.666 201.773 128.012 201.864 128.45 201.864ZM134.655 194.68H140.079V196.104H136.399V203H134.655V194.68ZM141.686 194.68H143.43V196.056H143.51C143.692 195.555 143.985 195.171 144.39 194.904C144.806 194.627 145.292 194.488 145.846 194.488C146.902 194.488 147.718 194.872 148.294 195.64C148.87 196.397 149.158 197.464 149.158 198.84C149.158 200.216 148.87 201.288 148.294 202.056C147.718 202.813 146.902 203.192 145.846 203.192C145.292 203.192 144.806 203.053 144.39 202.776C143.985 202.499 143.692 202.115 143.51 201.624H143.43V206.2H141.686V194.68ZM145.318 201.688C145.926 201.688 146.412 201.496 146.774 201.112C147.137 200.717 147.318 200.2 147.318 199.56V198.12C147.318 197.48 147.137 196.968 146.774 196.584C146.412 196.189 145.926 195.992 145.318 195.992C144.785 195.992 144.337 196.125 143.974 196.392C143.612 196.648 143.43 196.989 143.43 197.416V200.264C143.43 200.691 143.612 201.037 143.974 201.304C144.337 201.56 144.785 201.688 145.318 201.688ZM156.15 194.68H157.83L154.326 204.648C154.23 204.925 154.118 205.16 153.99 205.352C153.872 205.555 153.728 205.715 153.558 205.832C153.398 205.96 153.2 206.051 152.966 206.104C152.731 206.168 152.454 206.2 152.134 206.2H151.126V204.776H152.534L153.014 203.368L149.99 194.68H151.734L153.398 199.576L153.878 201.384H153.958L154.486 199.576L156.15 194.68ZM161.856 203.192C161.024 203.192 160.342 203.053 159.808 202.776C159.275 202.499 158.816 202.104 158.432 201.592L159.568 200.552C159.824 200.925 160.139 201.219 160.512 201.432C160.896 201.645 161.344 201.752 161.856 201.752C162.454 201.752 162.891 201.645 163.168 201.432C163.456 201.219 163.6 200.941 163.6 200.6V200.408C163.6 200.067 163.483 199.811 163.248 199.64C163.024 199.459 162.699 199.368 162.272 199.368H160.48V198.088H162.096C162.523 198.088 162.848 198.008 163.072 197.848C163.307 197.677 163.424 197.432 163.424 197.112V196.936C163.424 196.627 163.296 196.381 163.04 196.2C162.784 196.019 162.379 195.928 161.824 195.928C161.323 195.928 160.896 196.029 160.544 196.232C160.192 196.435 159.91 196.707 159.696 197.048L158.608 196.104C158.928 195.613 159.355 195.224 159.888 194.936C160.432 194.637 161.115 194.488 161.936 194.488C163.046 194.488 163.867 194.696 164.4 195.112C164.944 195.517 165.216 196.061 165.216 196.744C165.216 197.277 165.078 197.693 164.8 197.992C164.523 198.28 164.107 198.477 163.552 198.584V198.664C164.16 198.739 164.619 198.941 164.928 199.272C165.248 199.603 165.408 200.029 165.408 200.552C165.408 201.373 165.088 202.019 164.448 202.488C163.819 202.957 162.955 203.192 161.856 203.192ZM167.483 194.68H169.227V198.04H170.699L172.075 195.72C172.31 195.325 172.544 195.053 172.779 194.904C173.014 194.755 173.312 194.68 173.675 194.68H174.523V196.104H173.595L172.539 197.864C172.379 198.141 172.235 198.333 172.107 198.44C171.99 198.547 171.83 198.627 171.627 198.68V198.744C171.84 198.787 172.027 198.867 172.187 198.984C172.347 199.091 172.502 199.283 172.651 199.56L173.771 201.576H174.683V203H173.691C173.339 203 173.035 202.92 172.779 202.76C172.534 202.6 172.299 202.317 172.075 201.912L170.699 199.448H169.227V203H167.483V194.68ZM182.517 203C182.058 203 181.706 202.872 181.461 202.616C181.215 202.349 181.066 202.013 181.013 201.608H180.933C180.773 202.131 180.479 202.525 180.053 202.792C179.626 203.059 179.109 203.192 178.501 203.192C177.637 203.192 176.97 202.968 176.501 202.52C176.042 202.072 175.813 201.469 175.813 200.712C175.813 199.88 176.111 199.256 176.709 198.84C177.317 198.424 178.202 198.216 179.365 198.216H180.869V197.512C180.869 197 180.73 196.605 180.453 196.328C180.175 196.051 179.743 195.912 179.157 195.912C178.666 195.912 178.266 196.019 177.957 196.232C177.647 196.445 177.386 196.717 177.173 197.048L176.133 196.104C176.41 195.635 176.799 195.251 177.301 194.952C177.802 194.643 178.458 194.488 179.269 194.488C180.346 194.488 181.173 194.739 181.749 195.24C182.325 195.741 182.613 196.461 182.613 197.4V201.576H183.493V203H182.517ZM178.997 201.864C179.541 201.864 179.989 201.747 180.341 201.512C180.693 201.267 180.869 200.941 180.869 200.536V199.336H179.397C178.191 199.336 177.589 199.709 177.589 200.456V200.744C177.589 201.117 177.711 201.4 177.957 201.592C178.213 201.773 178.559 201.864 178.997 201.864ZM120.387 222.576H121.395C121.704 222.096 121.944 221.493 122.115 220.768C122.296 220.032 122.387 219.131 122.387 218.064V215.68H128.467V222.576H129.875V226.24H128.291V224H121.971V226.24H120.387V222.576ZM126.723 222.576V217.104H124.051V218.16C124.051 219.28 123.971 220.197 123.811 220.912C123.651 221.616 123.464 222.171 123.251 222.576H126.723ZM137.556 224C137.097 224 136.745 223.872 136.5 223.616C136.254 223.349 136.105 223.013 136.052 222.608H135.972C135.812 223.131 135.518 223.525 135.092 223.792C134.665 224.059 134.148 224.192 133.54 224.192C132.676 224.192 132.009 223.968 131.54 223.52C131.081 223.072 130.852 222.469 130.852 221.712C130.852 220.88 131.15 220.256 131.748 219.84C132.356 219.424 133.241 219.216 134.404 219.216H135.908V218.512C135.908 218 135.769 217.605 135.492 217.328C135.214 217.051 134.782 216.912 134.196 216.912C133.705 216.912 133.305 217.019 132.996 217.232C132.686 217.445 132.425 217.717 132.212 218.048L131.172 217.104C131.449 216.635 131.838 216.251 132.34 215.952C132.841 215.643 133.497 215.488 134.308 215.488C135.385 215.488 136.212 215.739 136.788 216.24C137.364 216.741 137.652 217.461 137.652 218.4V222.576H138.532V224H137.556ZM134.036 222.864C134.58 222.864 135.028 222.747 135.38 222.512C135.732 222.267 135.908 221.941 135.908 221.536V220.336H134.436C133.23 220.336 132.628 220.709 132.628 221.456V221.744C132.628 222.117 132.75 222.4 132.996 222.592C133.252 222.773 133.598 222.864 134.036 222.864ZM140.241 215.68H141.985V219.024H145.569V215.68H147.313V224H145.569V220.448H141.985V224H140.241V215.68ZM149.803 215.68H151.547V219.024H155.131V215.68H156.875V224H155.131V220.448H151.547V224H149.803V215.68ZM159.366 215.68H161.11V218.464H163.238C163.654 218.464 164.033 218.528 164.374 218.656C164.715 218.773 165.009 218.955 165.254 219.2C165.499 219.435 165.691 219.723 165.83 220.064C165.969 220.405 166.038 220.795 166.038 221.232C166.038 222.117 165.782 222.8 165.27 223.28C164.758 223.76 164.086 224 163.254 224H159.366V215.68ZM162.918 222.64C163.323 222.64 163.643 222.555 163.878 222.384C164.113 222.203 164.23 221.925 164.23 221.552V220.896C164.23 220.523 164.113 220.251 163.878 220.08C163.643 219.909 163.323 219.824 162.918 219.824H161.11V222.64H162.918ZM167.286 215.68H169.03V224H167.286V215.68ZM170.594 224L173.522 219.792L170.674 215.68H172.69L174.562 218.576H174.61L176.53 215.68H178.386L175.538 219.776L178.434 224H176.418L174.498 220.976H174.45L172.45 224H170.594Z" fill="white"/>
<path d="M411.142 203.192C410.417 203.192 409.755 203.069 409.158 202.824C408.571 202.568 408.065 202.2 407.638 201.72C407.222 201.229 406.897 200.627 406.662 199.912C406.438 199.187 406.326 198.355 406.326 197.416C406.326 196.477 406.438 195.651 406.662 194.936C406.897 194.211 407.222 193.608 407.638 193.128C408.065 192.637 408.571 192.269 409.158 192.024C409.755 191.768 410.417 191.64 411.142 191.64C411.867 191.64 412.523 191.768 413.11 192.024C413.707 192.269 414.214 192.637 414.63 193.128C415.057 193.608 415.382 194.211 415.606 194.936C415.841 195.651 415.958 196.477 415.958 197.416C415.958 198.355 415.841 199.187 415.606 199.912C415.382 200.627 415.057 201.229 414.63 201.72C414.214 202.2 413.707 202.568 413.11 202.824C412.523 203.069 411.867 203.192 411.142 203.192ZM411.142 201.576C411.569 201.576 411.958 201.501 412.31 201.352C412.673 201.203 412.977 200.989 413.222 200.712C413.478 200.424 413.675 200.077 413.814 199.672C413.953 199.267 414.022 198.808 414.022 198.296V196.536C414.022 196.024 413.953 195.565 413.814 195.16C413.675 194.755 413.478 194.413 413.222 194.136C412.977 193.848 412.673 193.629 412.31 193.48C411.958 193.331 411.569 193.256 411.142 193.256C410.705 193.256 410.31 193.331 409.958 193.48C409.606 193.629 409.302 193.848 409.046 194.136C408.801 194.413 408.609 194.755 408.47 195.16C408.331 195.565 408.262 196.024 408.262 196.536V198.296C408.262 198.808 408.331 199.267 408.47 199.672C408.609 200.077 408.801 200.424 409.046 200.712C409.302 200.989 409.606 201.203 409.958 201.352C410.31 201.501 410.705 201.576 411.142 201.576ZM421.413 203.192C420.815 203.192 420.282 203.096 419.813 202.904C419.343 202.701 418.943 202.387 418.613 201.96C418.282 201.533 418.026 200.995 417.845 200.344C417.674 199.683 417.589 198.888 417.589 197.96C417.589 196.829 417.669 195.859 417.829 195.048C417.999 194.227 418.261 193.549 418.613 193.016C418.975 192.472 419.429 192.056 419.973 191.768C420.527 191.48 421.189 191.304 421.957 191.24L424.613 191V192.712L421.861 192.968C421.423 193.011 421.055 193.096 420.757 193.224C420.469 193.352 420.229 193.549 420.037 193.816C419.855 194.072 419.717 194.419 419.621 194.856C419.525 195.283 419.455 195.816 419.413 196.456H419.493C419.706 195.901 419.994 195.485 420.357 195.208C420.73 194.931 421.231 194.792 421.861 194.792C422.351 194.792 422.799 194.888 423.205 195.08C423.621 195.261 423.978 195.528 424.277 195.88C424.575 196.232 424.805 196.664 424.965 197.176C425.135 197.677 425.221 198.253 425.221 198.904C425.221 199.555 425.13 200.147 424.949 200.68C424.767 201.203 424.511 201.651 424.181 202.024C423.85 202.397 423.45 202.685 422.981 202.888C422.511 203.091 421.989 203.192 421.413 203.192ZM421.413 201.752C422.021 201.752 422.501 201.565 422.853 201.192C423.205 200.808 423.381 200.248 423.381 199.512V198.472C423.381 197.736 423.205 197.181 422.853 196.808C422.501 196.424 422.021 196.232 421.413 196.232C420.773 196.232 420.282 196.403 419.941 196.744C419.61 197.085 419.445 197.544 419.445 198.12V199.512C419.445 200.248 419.621 200.808 419.973 201.192C420.325 201.565 420.805 201.752 421.413 201.752ZM427.163 194.68H428.907V196.056H428.987C429.168 195.555 429.461 195.171 429.867 194.904C430.283 194.627 430.768 194.488 431.323 194.488C432.379 194.488 433.195 194.872 433.771 195.64C434.347 196.397 434.635 197.464 434.635 198.84C434.635 200.216 434.347 201.288 433.771 202.056C433.195 202.813 432.379 203.192 431.323 203.192C430.768 203.192 430.283 203.053 429.867 202.776C429.461 202.499 429.168 202.115 428.987 201.624H428.907V206.2H427.163V194.68ZM430.795 201.688C431.403 201.688 431.888 201.496 432.251 201.112C432.613 200.717 432.795 200.2 432.795 199.56V198.12C432.795 197.48 432.613 196.968 432.251 196.584C431.888 196.189 431.403 195.992 430.795 195.992C430.261 195.992 429.813 196.125 429.451 196.392C429.088 196.648 428.907 196.989 428.907 197.416V200.264C428.907 200.691 429.088 201.037 429.451 201.304C429.813 201.56 430.261 201.688 430.795 201.688ZM442.727 203C442.269 203 441.917 202.872 441.671 202.616C441.426 202.349 441.277 202.013 441.223 201.608H441.143C440.983 202.131 440.69 202.525 440.263 202.792C439.837 203.059 439.319 203.192 438.711 203.192C437.847 203.192 437.181 202.968 436.711 202.52C436.253 202.072 436.023 201.469 436.023 200.712C436.023 199.88 436.322 199.256 436.919 198.84C437.527 198.424 438.413 198.216 439.575 198.216H441.079V197.512C441.079 197 440.941 196.605 440.663 196.328C440.386 196.051 439.954 195.912 439.367 195.912C438.877 195.912 438.477 196.019 438.167 196.232C437.858 196.445 437.597 196.717 437.383 197.048L436.343 196.104C436.621 195.635 437.01 195.251 437.511 194.952C438.013 194.643 438.669 194.488 439.479 194.488C440.557 194.488 441.383 194.739 441.959 195.24C442.535 195.741 442.823 196.461 442.823 197.4V201.576H443.703V203H442.727ZM439.207 201.864C439.751 201.864 440.199 201.747 440.551 201.512C440.903 201.267 441.079 200.941 441.079 200.536V199.336H439.607C438.402 199.336 437.799 199.709 437.799 200.456V200.744C437.799 201.117 437.922 201.4 438.167 201.592C438.423 201.773 438.77 201.864 439.207 201.864ZM448.756 203.192C448.159 203.192 447.626 203.096 447.156 202.904C446.687 202.701 446.287 202.387 445.956 201.96C445.626 201.533 445.37 200.995 445.188 200.344C445.018 199.683 444.932 198.888 444.932 197.96C444.932 196.829 445.012 195.859 445.172 195.048C445.343 194.227 445.604 193.549 445.956 193.016C446.319 192.472 446.772 192.056 447.316 191.768C447.871 191.48 448.532 191.304 449.3 191.24L451.956 191V192.712L449.204 192.968C448.767 193.011 448.399 193.096 448.1 193.224C447.812 193.352 447.572 193.549 447.38 193.816C447.199 194.072 447.06 194.419 446.964 194.856C446.868 195.283 446.799 195.816 446.756 196.456H446.836C447.05 195.901 447.338 195.485 447.7 195.208C448.074 194.931 448.575 194.792 449.204 194.792C449.695 194.792 450.143 194.888 450.548 195.08C450.964 195.261 451.322 195.528 451.62 195.88C451.919 196.232 452.148 196.664 452.308 197.176C452.479 197.677 452.564 198.253 452.564 198.904C452.564 199.555 452.474 200.147 452.292 200.68C452.111 201.203 451.855 201.651 451.524 202.024C451.194 202.397 450.794 202.685 450.324 202.888C449.855 203.091 449.332 203.192 448.756 203.192ZM448.756 201.752C449.364 201.752 449.844 201.565 450.196 201.192C450.548 200.808 450.724 200.248 450.724 199.512V198.472C450.724 197.736 450.548 197.181 450.196 196.808C449.844 196.424 449.364 196.232 448.756 196.232C448.116 196.232 447.626 196.403 447.284 196.744C446.954 197.085 446.788 197.544 446.788 198.12V199.512C446.788 200.248 446.964 200.808 447.316 201.192C447.668 201.565 448.148 201.752 448.756 201.752ZM457.77 203.192C457.194 203.192 456.666 203.091 456.186 202.888C455.717 202.685 455.317 202.397 454.986 202.024C454.656 201.64 454.4 201.181 454.218 200.648C454.037 200.104 453.946 199.501 453.946 198.84C453.946 198.179 454.037 197.581 454.218 197.048C454.4 196.504 454.656 196.045 454.986 195.672C455.317 195.288 455.717 194.995 456.186 194.792C456.666 194.589 457.194 194.488 457.77 194.488C458.346 194.488 458.869 194.589 459.338 194.792C459.818 194.995 460.224 195.288 460.554 195.672C460.885 196.045 461.141 196.504 461.322 197.048C461.504 197.581 461.594 198.179 461.594 198.84C461.594 199.501 461.504 200.104 461.322 200.648C461.141 201.181 460.885 201.64 460.554 202.024C460.224 202.397 459.818 202.685 459.338 202.888C458.869 203.091 458.346 203.192 457.77 203.192ZM457.77 201.752C458.368 201.752 458.848 201.571 459.21 201.208C459.573 200.835 459.754 200.28 459.754 199.544V198.136C459.754 197.4 459.573 196.851 459.21 196.488C458.848 196.115 458.368 195.928 457.77 195.928C457.173 195.928 456.693 196.115 456.33 196.488C455.968 196.851 455.786 197.4 455.786 198.136V199.544C455.786 200.28 455.968 200.835 456.33 201.208C456.693 201.571 457.173 201.752 457.77 201.752ZM465.109 196.104H462.453V194.68H469.509V196.104H466.853V203H465.109V196.104ZM471.085 194.68H472.829V198.04H474.301L475.677 195.72C475.911 195.325 476.146 195.053 476.381 194.904C476.615 194.755 476.914 194.68 477.277 194.68H478.125V196.104H477.197L476.141 197.864C475.981 198.141 475.837 198.333 475.709 198.44C475.591 198.547 475.431 198.627 475.229 198.68V198.744C475.442 198.787 475.629 198.867 475.789 198.984C475.949 199.091 476.103 199.283 476.253 199.56L477.373 201.576H478.285V203H477.293C476.941 203 476.637 202.92 476.381 202.76C476.135 202.6 475.901 202.317 475.677 201.912L474.301 199.448H472.829V203H471.085V194.68ZM486.118 203C485.659 203 485.307 202.872 485.062 202.616C484.817 202.349 484.667 202.013 484.614 201.608H484.534C484.374 202.131 484.081 202.525 483.654 202.792C483.227 203.059 482.71 203.192 482.102 203.192C481.238 203.192 480.571 202.968 480.102 202.52C479.643 202.072 479.414 201.469 479.414 200.712C479.414 199.88 479.713 199.256 480.31 198.84C480.918 198.424 481.803 198.216 482.966 198.216H484.47V197.512C484.47 197 484.331 196.605 484.054 196.328C483.777 196.051 483.345 195.912 482.758 195.912C482.267 195.912 481.867 196.019 481.558 196.232C481.249 196.445 480.987 196.717 480.774 197.048L479.734 196.104C480.011 195.635 480.401 195.251 480.902 194.952C481.403 194.643 482.059 194.488 482.87 194.488C483.947 194.488 484.774 194.739 485.35 195.24C485.926 195.741 486.214 196.461 486.214 197.4V201.576H487.094V203H486.118ZM482.598 201.864C483.142 201.864 483.59 201.747 483.942 201.512C484.294 201.267 484.47 200.941 484.47 200.536V199.336H482.998C481.793 199.336 481.19 199.709 481.19 200.456V200.744C481.19 201.117 481.313 201.4 481.558 201.592C481.814 201.773 482.161 201.864 482.598 201.864ZM417.387 222.576H418.395C418.704 222.096 418.944 221.493 419.115 220.768C419.296 220.032 419.387 219.131 419.387 218.064V215.68H425.467V222.576H426.875V226.24H425.291V224H418.971V226.24H417.387V222.576ZM423.723 222.576V217.104H421.051V218.16C421.051 219.28 420.971 220.197 420.811 220.912C420.651 221.616 420.464 222.171 420.251 222.576H423.723ZM434.556 224C434.097 224 433.745 223.872 433.5 223.616C433.254 223.349 433.105 223.013 433.052 222.608H432.972C432.812 223.131 432.518 223.525 432.092 223.792C431.665 224.059 431.148 224.192 430.54 224.192C429.676 224.192 429.009 223.968 428.54 223.52C428.081 223.072 427.852 222.469 427.852 221.712C427.852 220.88 428.15 220.256 428.748 219.84C429.356 219.424 430.241 219.216 431.404 219.216H432.908V218.512C432.908 218 432.769 217.605 432.492 217.328C432.214 217.051 431.782 216.912 431.196 216.912C430.705 216.912 430.305 217.019 429.996 217.232C429.686 217.445 429.425 217.717 429.212 218.048L428.172 217.104C428.449 216.635 428.838 216.251 429.34 215.952C429.841 215.643 430.497 215.488 431.308 215.488C432.385 215.488 433.212 215.739 433.788 216.24C434.364 216.741 434.652 217.461 434.652 218.4V222.576H435.532V224H434.556ZM431.036 222.864C431.58 222.864 432.028 222.747 432.38 222.512C432.732 222.267 432.908 221.941 432.908 221.536V220.336H431.436C430.23 220.336 429.628 220.709 429.628 221.456V221.744C429.628 222.117 429.75 222.4 429.996 222.592C430.252 222.773 430.598 222.864 431.036 222.864ZM437.241 215.68H438.985V219.024H442.569V215.68H444.313V224H442.569V220.448H438.985V224H437.241V215.68ZM446.803 215.68H448.547V219.024H452.131V215.68H453.875V224H452.131V220.448H448.547V224H446.803V215.68ZM456.366 215.68H458.11V218.464H460.238C460.654 218.464 461.033 218.528 461.374 218.656C461.715 218.773 462.009 218.955 462.254 219.2C462.499 219.435 462.691 219.723 462.83 220.064C462.969 220.405 463.038 220.795 463.038 221.232C463.038 222.117 462.782 222.8 462.27 223.28C461.758 223.76 461.086 224 460.254 224H456.366V215.68ZM459.918 222.64C460.323 222.64 460.643 222.555 460.878 222.384C461.113 222.203 461.23 221.925 461.23 221.552V220.896C461.23 220.523 461.113 220.251 460.878 220.08C460.643 219.909 460.323 219.824 459.918 219.824H458.11V222.64H459.918ZM464.286 215.68H466.03V224H464.286V215.68ZM467.594 224L470.522 219.792L467.674 215.68H469.69L471.562 218.576H471.61L473.53 215.68H475.386L472.538 219.776L475.434 224H473.418L471.498 220.976H471.45L469.45 224H467.594Z" fill="white"/>
<path d="M688.783 201.832H693.727C694.655 201.832 695.38 202.093 695.903 202.616C696.436 203.139 696.703 203.837 696.703 204.712C696.703 205.128 696.644 205.485 696.527 205.784C696.41 206.072 696.26 206.312 696.079 206.504C695.898 206.685 695.69 206.824 695.455 206.92C695.22 207.005 694.991 207.059 694.767 207.08V207.176C694.991 207.187 695.236 207.24 695.503 207.336C695.78 207.432 696.036 207.587 696.271 207.8C696.506 208.003 696.703 208.269 696.863 208.6C697.023 208.92 697.103 209.315 697.103 209.784C697.103 210.232 697.028 210.653 696.879 211.048C696.74 211.443 696.543 211.784 696.287 212.072C696.031 212.36 695.727 212.589 695.375 212.76C695.023 212.92 694.639 213 694.223 213H688.783V201.832ZM690.591 211.448H693.695C694.164 211.448 694.532 211.325 694.799 211.08C695.066 210.835 695.199 210.483 695.199 210.024V209.48C695.199 209.021 695.066 208.669 694.799 208.424C694.532 208.179 694.164 208.056 693.695 208.056H690.591V211.448ZM690.591 206.552H693.391C693.839 206.552 694.186 206.44 694.431 206.216C694.676 205.981 694.799 205.651 694.799 205.224V204.712C694.799 204.285 694.676 203.96 694.431 203.736C694.186 203.501 693.839 203.384 693.391 203.384H690.591V206.552ZM699.202 204.68H700.946V207.464H703.074C703.49 207.464 703.868 207.528 704.21 207.656C704.551 207.773 704.844 207.955 705.09 208.2C705.335 208.435 705.527 208.723 705.666 209.064C705.804 209.405 705.874 209.795 705.874 210.232C705.874 211.117 705.618 211.8 705.106 212.28C704.594 212.76 703.922 213 703.09 213H699.202V204.68ZM702.754 211.64C703.159 211.64 703.479 211.555 703.714 211.384C703.948 211.203 704.066 210.925 704.066 210.552V209.896C704.066 209.523 703.948 209.251 703.714 209.08C703.479 208.909 703.159 208.824 702.754 208.824H700.946V211.64H702.754ZM707.122 204.68H708.866V213H707.122V204.68ZM714.686 213.192C714.089 213.192 713.555 213.096 713.086 212.904C712.617 212.701 712.217 212.387 711.886 211.96C711.555 211.533 711.299 210.995 711.118 210.344C710.947 209.683 710.862 208.888 710.862 207.96C710.862 206.829 710.942 205.859 711.102 205.048C711.273 204.227 711.534 203.549 711.886 203.016C712.249 202.472 712.702 202.056 713.246 201.768C713.801 201.48 714.462 201.304 715.23 201.24L717.886 201V202.712L715.134 202.968C714.697 203.011 714.329 203.096 714.03 203.224C713.742 203.352 713.502 203.549 713.31 203.816C713.129 204.072 712.99 204.419 712.894 204.856C712.798 205.283 712.729 205.816 712.686 206.456H712.766C712.979 205.901 713.267 205.485 713.63 205.208C714.003 204.931 714.505 204.792 715.134 204.792C715.625 204.792 716.073 204.888 716.478 205.08C716.894 205.261 717.251 205.528 717.55 205.88C717.849 206.232 718.078 206.664 718.238 207.176C718.409 207.677 718.494 208.253 718.494 208.904C718.494 209.555 718.403 210.147 718.222 210.68C718.041 211.203 717.785 211.651 717.454 212.024C717.123 212.397 716.723 212.685 716.254 212.888C715.785 213.091 715.262 213.192 714.686 213.192ZM714.686 211.752C715.294 211.752 715.774 211.565 716.126 211.192C716.478 210.808 716.654 210.248 716.654 209.512V208.472C716.654 207.736 716.478 207.181 716.126 206.808C715.774 206.424 715.294 206.232 714.686 206.232C714.046 206.232 713.555 206.403 713.214 206.744C712.883 207.085 712.718 207.544 712.718 208.12V209.512C712.718 210.248 712.894 210.808 713.246 211.192C713.598 211.565 714.078 211.752 714.686 211.752ZM723.7 213.192C723.124 213.192 722.596 213.091 722.116 212.888C721.647 212.685 721.247 212.397 720.916 212.024C720.586 211.64 720.33 211.181 720.148 210.648C719.967 210.104 719.876 209.501 719.876 208.84C719.876 208.179 719.967 207.581 720.148 207.048C720.33 206.504 720.586 206.045 720.916 205.672C721.247 205.288 721.647 204.995 722.116 204.792C722.596 204.589 723.124 204.488 723.7 204.488C724.276 204.488 724.799 204.589 725.268 204.792C725.748 204.995 726.154 205.288 726.484 205.672C726.815 206.045 727.071 206.504 727.252 207.048C727.434 207.581 727.524 208.179 727.524 208.84C727.524 209.501 727.434 210.104 727.252 210.648C727.071 211.181 726.815 211.64 726.484 212.024C726.154 212.397 725.748 212.685 725.268 212.888C724.799 213.091 724.276 213.192 723.7 213.192ZM723.7 211.752C724.298 211.752 724.778 211.571 725.14 211.208C725.503 210.835 725.684 210.28 725.684 209.544V208.136C725.684 207.4 725.503 206.851 725.14 206.488C724.778 206.115 724.298 205.928 723.7 205.928C723.103 205.928 722.623 206.115 722.26 206.488C721.898 206.851 721.716 207.4 721.716 208.136V209.544C721.716 210.28 721.898 210.835 722.26 211.208C722.623 211.571 723.103 211.752 723.7 211.752ZM729.467 204.68H731.211V206.056H731.291C731.473 205.555 731.766 205.171 732.171 204.904C732.587 204.627 733.073 204.488 733.627 204.488C734.683 204.488 735.499 204.872 736.075 205.64C736.651 206.397 736.939 207.464 736.939 208.84C736.939 210.216 736.651 211.288 736.075 212.056C735.499 212.813 734.683 213.192 733.627 213.192C733.073 213.192 732.587 213.053 732.171 212.776C731.766 212.499 731.473 212.115 731.291 211.624H731.211V216.2H729.467V204.68ZM733.099 211.688C733.707 211.688 734.193 211.496 734.555 211.112C734.918 210.717 735.099 210.2 735.099 209.56V208.12C735.099 207.48 734.918 206.968 734.555 206.584C734.193 206.189 733.707 205.992 733.099 205.992C732.566 205.992 732.118 206.125 731.755 206.392C731.393 206.648 731.211 206.989 731.211 207.416V210.264C731.211 210.691 731.393 211.037 731.755 211.304C732.118 211.56 732.566 211.688 733.099 211.688ZM742.717 204.68H744.829L747.181 208.616H747.213L749.565 204.68H751.581V213H749.869V206.824H749.805L749.261 207.848L747.149 211.368L745.037 207.848L744.493 206.824H744.429V213H742.717V204.68ZM757.341 213.192C756.765 213.192 756.237 213.091 755.757 212.888C755.287 212.685 754.887 212.397 754.557 212.024C754.226 211.64 753.97 211.181 753.789 210.648C753.607 210.104 753.517 209.501 753.517 208.84C753.517 208.179 753.607 207.581 753.789 207.048C753.97 206.504 754.226 206.045 754.557 205.672C754.887 205.288 755.287 204.995 755.757 204.792C756.237 204.589 756.765 204.488 757.341 204.488C757.917 204.488 758.439 204.589 758.909 204.792C759.389 204.995 759.794 205.288 760.125 205.672C760.455 206.045 760.711 206.504 760.893 207.048C761.074 207.581 761.165 208.179 761.165 208.84C761.165 209.501 761.074 210.104 760.893 210.648C760.711 211.181 760.455 211.64 760.125 212.024C759.794 212.397 759.389 212.685 758.909 212.888C758.439 213.091 757.917 213.192 757.341 213.192ZM757.341 211.752C757.938 211.752 758.418 211.571 758.781 211.208C759.143 210.835 759.325 210.28 759.325 209.544V208.136C759.325 207.4 759.143 206.851 758.781 206.488C758.418 206.115 757.938 205.928 757.341 205.928C756.743 205.928 756.263 206.115 755.901 206.488C755.538 206.851 755.357 207.4 755.357 208.136V209.544C755.357 210.28 755.538 210.835 755.901 211.208C756.263 211.571 756.743 211.752 757.341 211.752ZM761.957 211.576H762.965C763.275 211.096 763.515 210.493 763.685 209.768C763.867 209.032 763.957 208.131 763.957 207.064V204.68H770.037V211.576H771.445V215.24H769.861V213H763.541V215.24H761.957V211.576ZM768.293 211.576V206.104H765.621V207.16C765.621 208.28 765.541 209.197 765.381 209.912C765.221 210.616 765.035 211.171 764.821 211.576H768.293ZM776.294 213.192C775.697 213.192 775.163 213.091 774.694 212.888C774.225 212.685 773.825 212.397 773.494 212.024C773.163 211.64 772.907 211.181 772.726 210.648C772.555 210.104 772.47 209.501 772.47 208.84C772.47 208.179 772.555 207.581 772.726 207.048C772.907 206.504 773.163 206.045 773.494 205.672C773.825 205.288 774.225 204.995 774.694 204.792C775.163 204.589 775.697 204.488 776.294 204.488C776.902 204.488 777.435 204.595 777.894 204.808C778.363 205.021 778.753 205.32 779.062 205.704C779.371 206.077 779.601 206.515 779.75 207.016C779.91 207.517 779.99 208.056 779.99 208.632V209.288H774.278V209.56C774.278 210.2 774.465 210.728 774.838 211.144C775.222 211.549 775.766 211.752 776.47 211.752C776.982 211.752 777.414 211.64 777.766 211.416C778.118 211.192 778.417 210.888 778.662 210.504L779.686 211.512C779.377 212.024 778.929 212.435 778.342 212.744C777.755 213.043 777.073 213.192 776.294 213.192ZM776.294 205.848C775.995 205.848 775.718 205.901 775.462 206.008C775.217 206.115 775.003 206.264 774.822 206.456C774.651 206.648 774.518 206.877 774.422 207.144C774.326 207.411 774.278 207.704 774.278 208.024V208.136H778.15V207.976C778.15 207.336 777.985 206.824 777.654 206.44C777.323 206.045 776.87 205.848 776.294 205.848ZM780.849 211.576H781.937C782.065 211.405 782.177 211.203 782.273 210.968C782.369 210.723 782.449 210.424 782.513 210.072C782.577 209.72 782.625 209.309 782.657 208.84C782.699 208.36 782.721 207.8 782.721 207.16V204.68H788.769V213H787.025V206.104H784.401V207.24C784.401 208.008 784.369 208.68 784.305 209.256C784.251 209.832 784.171 210.328 784.065 210.744C783.969 211.16 783.846 211.507 783.697 211.784C783.558 212.051 783.409 212.264 783.249 212.424C783.025 212.648 782.769 212.808 782.481 212.904C782.193 213 781.846 213.048 781.441 213.048H780.849V211.576ZM791.28 204.68H792.992V208.744L792.832 210.712H792.896L793.888 208.936L796.768 204.68H798.352V213H796.64V208.936L796.8 206.968H796.736L795.744 208.744L792.864 213H791.28V204.68Z" fill="white"/>
<path d="M1004.46 191.832H1012.89V203H1011.09V193.432H1006.27V203H1004.46V191.832ZM1015.52 194.68H1017.27V196.056H1017.35C1017.53 195.555 1017.82 195.171 1018.23 194.904C1018.64 194.627 1019.13 194.488 1019.68 194.488C1020.74 194.488 1021.55 194.872 1022.13 195.64C1022.71 196.397 1022.99 197.464 1022.99 198.84C1022.99 200.216 1022.71 201.288 1022.13 202.056C1021.55 202.813 1020.74 203.192 1019.68 203.192C1019.13 203.192 1018.64 203.053 1018.23 202.776C1017.82 202.499 1017.53 202.115 1017.35 201.624H1017.27V206.2H1015.52V194.68ZM1019.15 201.688C1019.76 201.688 1020.25 201.496 1020.61 201.112C1020.97 200.717 1021.15 200.2 1021.15 199.56V198.12C1021.15 197.48 1020.97 196.968 1020.61 196.584C1020.25 196.189 1019.76 195.992 1019.15 195.992C1018.62 195.992 1018.17 196.125 1017.81 196.392C1017.45 196.648 1017.27 196.989 1017.27 197.416V200.264C1017.27 200.691 1017.45 201.037 1017.81 201.304C1018.17 201.56 1018.62 201.688 1019.15 201.688ZM1028.25 203.192C1027.68 203.192 1027.15 203.091 1026.67 202.888C1026.2 202.685 1025.8 202.397 1025.47 202.024C1025.14 201.64 1024.88 201.181 1024.7 200.648C1024.52 200.104 1024.43 199.501 1024.43 198.84C1024.43 198.179 1024.52 197.581 1024.7 197.048C1024.88 196.504 1025.14 196.045 1025.47 195.672C1025.8 195.288 1026.2 194.995 1026.67 194.792C1027.15 194.589 1027.68 194.488 1028.25 194.488C1028.83 194.488 1029.35 194.589 1029.82 194.792C1030.3 194.995 1030.71 195.288 1031.04 195.672C1031.37 196.045 1031.63 196.504 1031.81 197.048C1031.99 197.581 1032.08 198.179 1032.08 198.84C1032.08 199.501 1031.99 200.104 1031.81 200.648C1031.63 201.181 1031.37 201.64 1031.04 202.024C1030.71 202.397 1030.3 202.685 1029.82 202.888C1029.35 203.091 1028.83 203.192 1028.25 203.192ZM1028.25 201.752C1028.85 201.752 1029.33 201.571 1029.69 201.208C1030.06 200.835 1030.24 200.28 1030.24 199.544V198.136C1030.24 197.4 1030.06 196.851 1029.69 196.488C1029.33 196.115 1028.85 195.928 1028.25 195.928C1027.66 195.928 1027.18 196.115 1026.81 196.488C1026.45 196.851 1026.27 197.4 1026.27 198.136V199.544C1026.27 200.28 1026.45 200.835 1026.81 201.208C1027.18 201.571 1027.66 201.752 1028.25 201.752ZM1034.02 194.68H1038.45C1039.17 194.68 1039.72 194.872 1040.1 195.256C1040.5 195.64 1040.69 196.152 1040.69 196.792C1040.69 197.837 1040.13 198.429 1039.01 198.568V198.648C1039.69 198.701 1040.18 198.899 1040.5 199.24C1040.83 199.571 1041 200.008 1041 200.552C1041 200.904 1040.94 201.229 1040.82 201.528C1040.72 201.827 1040.56 202.088 1040.34 202.312C1040.14 202.525 1039.89 202.696 1039.59 202.824C1039.29 202.941 1038.96 203 1038.58 203H1034.02V194.68ZM1038.18 201.672C1038.49 201.672 1038.74 201.592 1038.92 201.432C1039.1 201.272 1039.19 201.037 1039.19 200.728V200.296C1039.19 199.987 1039.1 199.752 1038.92 199.592C1038.74 199.421 1038.49 199.336 1038.18 199.336H1035.73V201.672H1038.18ZM1037.96 198.136C1038.26 198.136 1038.49 198.061 1038.65 197.912C1038.81 197.763 1038.89 197.549 1038.89 197.272V196.872C1038.89 196.595 1038.81 196.381 1038.65 196.232C1038.49 196.083 1038.26 196.008 1037.96 196.008H1035.73V198.136H1037.96ZM1046.35 203.192C1045.75 203.192 1045.22 203.091 1044.75 202.888C1044.28 202.685 1043.88 202.397 1043.55 202.024C1043.22 201.64 1042.96 201.181 1042.78 200.648C1042.61 200.104 1042.52 199.501 1042.52 198.84C1042.52 198.179 1042.61 197.581 1042.78 197.048C1042.96 196.504 1043.22 196.045 1043.55 195.672C1043.88 195.288 1044.28 194.995 1044.75 194.792C1045.22 194.589 1045.75 194.488 1046.35 194.488C1046.96 194.488 1047.49 194.595 1047.95 194.808C1048.42 195.021 1048.81 195.32 1049.12 195.704C1049.43 196.077 1049.66 196.515 1049.8 197.016C1049.96 197.517 1050.04 198.056 1050.04 198.632V199.288H1044.33V199.56C1044.33 200.2 1044.52 200.728 1044.89 201.144C1045.28 201.549 1045.82 201.752 1046.52 201.752C1047.04 201.752 1047.47 201.64 1047.82 201.416C1048.17 201.192 1048.47 200.888 1048.72 200.504L1049.74 201.512C1049.43 202.024 1048.98 202.435 1048.4 202.744C1047.81 203.043 1047.13 203.192 1046.35 203.192ZM1046.35 195.848C1046.05 195.848 1045.77 195.901 1045.52 196.008C1045.27 196.115 1045.06 196.264 1044.88 196.456C1044.71 196.648 1044.57 196.877 1044.48 197.144C1044.38 197.411 1044.33 197.704 1044.33 198.024V198.136H1048.2V197.976C1048.2 197.336 1048.04 196.824 1047.71 196.44C1047.38 196.045 1046.92 195.848 1046.35 195.848ZM1051.98 194.68H1053.72V196.056H1053.8C1053.98 195.555 1054.27 195.171 1054.68 194.904C1055.1 194.627 1055.58 194.488 1056.14 194.488C1057.19 194.488 1058.01 194.872 1058.58 195.64C1059.16 196.397 1059.45 197.464 1059.45 198.84C1059.45 200.216 1059.16 201.288 1058.58 202.056C1058.01 202.813 1057.19 203.192 1056.14 203.192C1055.58 203.192 1055.1 203.053 1054.68 202.776C1054.27 202.499 1053.98 202.115 1053.8 201.624H1053.72V206.2H1051.98V194.68ZM1055.61 201.688C1056.22 201.688 1056.7 201.496 1057.06 201.112C1057.43 200.717 1057.61 200.2 1057.61 199.56V198.12C1057.61 197.48 1057.43 196.968 1057.06 196.584C1056.7 196.189 1056.22 195.992 1055.61 195.992C1055.07 195.992 1054.63 196.125 1054.26 196.392C1053.9 196.648 1053.72 196.989 1053.72 197.416V200.264C1053.72 200.691 1053.9 201.037 1054.26 201.304C1054.63 201.56 1055.07 201.688 1055.61 201.688ZM1061.44 194.68H1063.19V198.04H1064.66L1066.04 195.72C1066.27 195.325 1066.51 195.053 1066.74 194.904C1066.97 194.755 1067.27 194.68 1067.64 194.68H1068.48V196.104H1067.56L1066.5 197.864C1066.34 198.141 1066.2 198.333 1066.07 198.44C1065.95 198.547 1065.79 198.627 1065.59 198.68V198.744C1065.8 198.787 1065.99 198.867 1066.15 198.984C1066.31 199.091 1066.46 199.283 1066.61 199.56L1067.73 201.576H1068.64V203H1067.65C1067.3 203 1067 202.92 1066.74 202.76C1066.49 202.6 1066.26 202.317 1066.04 201.912L1064.66 199.448H1063.19V203H1061.44V194.68ZM1076.48 203C1076.02 203 1075.67 202.872 1075.42 202.616C1075.18 202.349 1075.03 202.013 1074.97 201.608H1074.89C1074.73 202.131 1074.44 202.525 1074.01 202.792C1073.59 203.059 1073.07 203.192 1072.46 203.192C1071.6 203.192 1070.93 202.968 1070.46 202.52C1070 202.072 1069.77 201.469 1069.77 200.712C1069.77 199.88 1070.07 199.256 1070.67 198.84C1071.28 198.424 1072.16 198.216 1073.33 198.216H1074.83V197.512C1074.83 197 1074.69 196.605 1074.41 196.328C1074.14 196.051 1073.7 195.912 1073.12 195.912C1072.63 195.912 1072.23 196.019 1071.92 196.232C1071.61 196.445 1071.35 196.717 1071.13 197.048L1070.09 196.104C1070.37 195.635 1070.76 195.251 1071.26 194.952C1071.76 194.643 1072.42 194.488 1073.23 194.488C1074.31 194.488 1075.13 194.739 1075.71 195.24C1076.29 195.741 1076.57 196.461 1076.57 197.4V201.576H1077.45V203H1076.48ZM1072.96 201.864C1073.5 201.864 1073.95 201.747 1074.3 201.512C1074.65 201.267 1074.83 200.941 1074.83 200.536V199.336H1073.36C1072.15 199.336 1071.55 199.709 1071.55 200.456V200.744C1071.55 201.117 1071.67 201.4 1071.92 201.592C1072.17 201.773 1072.52 201.864 1072.96 201.864ZM995.139 215.68H996.883V217.056H996.963C997.145 216.555 997.438 216.171 997.843 215.904C998.259 215.627 998.745 215.488 999.299 215.488C1000.36 215.488 1001.17 215.872 1001.75 216.64C1002.32 217.397 1002.61 218.464 1002.61 219.84C1002.61 221.216 1002.32 222.288 1001.75 223.056C1001.17 223.813 1000.36 224.192 999.299 224.192C998.745 224.192 998.259 224.053 997.843 223.776C997.438 223.499 997.145 223.115 996.963 222.624H996.883V227.2H995.139V215.68ZM998.771 222.688C999.379 222.688 999.865 222.496 1000.23 222.112C1000.59 221.717 1000.77 221.2 1000.77 220.56V219.12C1000.77 218.48 1000.59 217.968 1000.23 217.584C999.865 217.189 999.379 216.992 998.771 216.992C998.238 216.992 997.79 217.125 997.427 217.392C997.065 217.648 996.883 217.989 996.883 218.416V221.264C996.883 221.691 997.065 222.037 997.427 222.304C997.79 222.56 998.238 222.688 998.771 222.688ZM1007.87 224.192C1007.27 224.192 1006.74 224.091 1006.27 223.888C1005.8 223.685 1005.4 223.397 1005.07 223.024C1004.74 222.64 1004.49 222.181 1004.3 221.648C1004.13 221.104 1004.05 220.501 1004.05 219.84C1004.05 219.179 1004.13 218.581 1004.3 218.048C1004.49 217.504 1004.74 217.045 1005.07 216.672C1005.4 216.288 1005.8 215.995 1006.27 215.792C1006.74 215.589 1007.27 215.488 1007.87 215.488C1008.48 215.488 1009.01 215.595 1009.47 215.808C1009.94 216.021 1010.33 216.32 1010.64 216.704C1010.95 217.077 1011.18 217.515 1011.33 218.016C1011.49 218.517 1011.57 219.056 1011.57 219.632V220.288H1005.86V220.56C1005.86 221.2 1006.04 221.728 1006.42 222.144C1006.8 222.549 1007.34 222.752 1008.05 222.752C1008.56 222.752 1008.99 222.64 1009.34 222.416C1009.7 222.192 1009.99 221.888 1010.24 221.504L1011.26 222.512C1010.95 223.024 1010.51 223.435 1009.92 223.744C1009.33 224.043 1008.65 224.192 1007.87 224.192ZM1007.87 216.848C1007.57 216.848 1007.3 216.901 1007.04 217.008C1006.79 217.115 1006.58 217.264 1006.4 217.456C1006.23 217.648 1006.1 217.877 1006 218.144C1005.9 218.411 1005.86 218.704 1005.86 219.024V219.136H1009.73V218.976C1009.73 218.336 1009.56 217.824 1009.23 217.44C1008.9 217.045 1008.45 216.848 1007.87 216.848ZM1016.09 224.192C1015.26 224.192 1014.58 224.053 1014.04 223.776C1013.51 223.499 1013.05 223.104 1012.67 222.592L1013.8 221.552C1014.06 221.925 1014.37 222.219 1014.75 222.432C1015.13 222.645 1015.58 222.752 1016.09 222.752C1016.69 222.752 1017.13 222.645 1017.4 222.432C1017.69 222.219 1017.83 221.941 1017.83 221.6V221.408C1017.83 221.067 1017.72 220.811 1017.48 220.64C1017.26 220.459 1016.93 220.368 1016.51 220.368H1014.71V219.088H1016.33C1016.76 219.088 1017.08 219.008 1017.31 218.848C1017.54 218.677 1017.66 218.432 1017.66 218.112V217.936C1017.66 217.627 1017.53 217.381 1017.27 217.2C1017.02 217.019 1016.61 216.928 1016.06 216.928C1015.56 216.928 1015.13 217.029 1014.78 217.232C1014.43 217.435 1014.14 217.707 1013.93 218.048L1012.84 217.104C1013.16 216.613 1013.59 216.224 1014.12 215.936C1014.67 215.637 1015.35 215.488 1016.17 215.488C1017.28 215.488 1018.1 215.696 1018.63 216.112C1019.18 216.517 1019.45 217.061 1019.45 217.744C1019.45 218.277 1019.31 218.693 1019.03 218.992C1018.76 219.28 1018.34 219.477 1017.79 219.584V219.664C1018.39 219.739 1018.85 219.941 1019.16 220.272C1019.48 220.603 1019.64 221.029 1019.64 221.552C1019.64 222.373 1019.32 223.019 1018.68 223.488C1018.05 223.957 1017.19 224.192 1016.09 224.192ZM1026.71 215.68H1028.39L1024.89 225.648C1024.79 225.925 1024.68 226.16 1024.55 226.352C1024.43 226.555 1024.29 226.715 1024.12 226.832C1023.96 226.96 1023.76 227.051 1023.53 227.104C1023.29 227.168 1023.02 227.2 1022.7 227.2H1021.69V225.776H1023.1L1023.58 224.368L1020.55 215.68H1022.3L1023.96 220.576L1024.44 222.384H1024.52L1025.05 220.576L1026.71 215.68ZM1028.46 222.576H1029.55C1029.67 222.405 1029.79 222.203 1029.88 221.968C1029.98 221.723 1030.06 221.424 1030.12 221.072C1030.19 220.72 1030.23 220.309 1030.27 219.84C1030.31 219.36 1030.33 218.8 1030.33 218.16V215.68H1036.38V224H1034.63V217.104H1032.01V218.24C1032.01 219.008 1031.98 219.68 1031.91 220.256C1031.86 220.832 1031.78 221.328 1031.67 221.744C1031.58 222.16 1031.46 222.507 1031.31 222.784C1031.17 223.051 1031.02 223.264 1030.86 223.424C1030.63 223.648 1030.38 223.808 1030.09 223.904C1029.8 224 1029.46 224.048 1029.05 224.048H1028.46V222.576ZM1038.89 215.68H1040.63V218.464H1042.92C1043.75 218.464 1044.43 218.709 1044.94 219.2C1045.46 219.68 1045.72 220.357 1045.72 221.232C1045.72 222.117 1045.47 222.8 1044.95 223.28C1044.44 223.76 1043.77 224 1042.94 224H1038.89V215.68ZM1042.6 222.64C1043.01 222.64 1043.33 222.555 1043.56 222.384C1043.8 222.203 1043.91 221.925 1043.91 221.552V220.896C1043.91 220.523 1043.8 220.251 1043.56 220.08C1043.33 219.909 1043.01 219.824 1042.6 219.824H1040.63V222.64H1042.6ZM1048.41 217.104H1045.76V215.68H1052.81V217.104H1050.16V224H1048.41V217.104ZM1060.33 224C1059.87 224 1059.52 223.872 1059.27 223.616C1059.03 223.349 1058.88 223.013 1058.83 222.608H1058.75C1058.59 223.131 1058.29 223.525 1057.87 223.792C1057.44 224.059 1056.92 224.192 1056.31 224.192C1055.45 224.192 1054.78 223.968 1054.31 223.52C1053.85 223.072 1053.63 222.469 1053.63 221.712C1053.63 220.88 1053.92 220.256 1054.52 219.84C1055.13 219.424 1056.01 219.216 1057.18 219.216H1058.68V218.512C1058.68 218 1058.54 217.605 1058.27 217.328C1057.99 217.051 1057.56 216.912 1056.97 216.912C1056.48 216.912 1056.08 217.019 1055.77 217.232C1055.46 217.445 1055.2 217.717 1054.99 218.048L1053.95 217.104C1054.22 216.635 1054.61 216.251 1055.11 215.952C1055.61 215.643 1056.27 215.488 1057.08 215.488C1058.16 215.488 1058.99 215.739 1059.56 216.24C1060.14 216.741 1060.43 217.461 1060.43 218.4V222.576H1061.31V224H1060.33ZM1056.81 222.864C1057.35 222.864 1057.8 222.747 1058.15 222.512C1058.51 222.267 1058.68 221.941 1058.68 221.536V220.336H1057.21C1056 220.336 1055.4 220.709 1055.4 221.456V221.744C1055.4 222.117 1055.52 222.4 1055.77 222.592C1056.03 222.773 1056.37 222.864 1056.81 222.864ZM1064.45 217.104H1061.79V215.68H1068.85V217.104H1066.19V224H1064.45V217.104ZM1073.53 224.192C1072.95 224.192 1072.42 224.091 1071.94 223.888C1071.47 223.685 1071.07 223.397 1070.74 223.024C1070.41 222.64 1070.16 222.181 1069.98 221.648C1069.79 221.104 1069.7 220.501 1069.7 219.84C1069.7 219.179 1069.79 218.581 1069.98 218.048C1070.16 217.504 1070.41 217.045 1070.74 216.672C1071.07 216.288 1071.47 215.995 1071.94 215.792C1072.42 215.589 1072.95 215.488 1073.53 215.488C1074.1 215.488 1074.63 215.589 1075.1 215.792C1075.58 215.995 1075.98 216.288 1076.31 216.672C1076.64 217.045 1076.9 217.504 1077.08 218.048C1077.26 218.581 1077.35 219.179 1077.35 219.84C1077.35 220.501 1077.26 221.104 1077.08 221.648C1076.9 222.181 1076.64 222.64 1076.31 223.024C1075.98 223.397 1075.58 223.685 1075.1 223.888C1074.63 224.091 1074.1 224.192 1073.53 224.192ZM1073.53 222.752C1074.13 222.752 1074.61 222.571 1074.97 222.208C1075.33 221.835 1075.51 221.28 1075.51 220.544V219.136C1075.51 218.4 1075.33 217.851 1074.97 217.488C1074.61 217.115 1074.13 216.928 1073.53 216.928C1072.93 216.928 1072.45 217.115 1072.09 217.488C1071.73 217.851 1071.54 218.4 1071.54 219.136V220.544C1071.54 221.28 1071.73 221.835 1072.09 222.208C1072.45 222.571 1072.93 222.752 1073.53 222.752ZM1079.3 215.68H1083.73C1084.44 215.68 1084.99 215.872 1085.38 216.256C1085.77 216.64 1085.97 217.152 1085.97 217.792C1085.97 218.837 1085.41 219.429 1084.29 219.568V219.648C1084.96 219.701 1085.46 219.899 1085.78 220.24C1086.11 220.571 1086.27 221.008 1086.27 221.552C1086.27 221.904 1086.21 222.229 1086.1 222.528C1085.99 222.827 1085.83 223.088 1085.62 223.312C1085.41 223.525 1085.16 223.696 1084.86 223.824C1084.56 223.941 1084.23 224 1083.86 224H1079.3V215.68ZM1083.46 222.672C1083.76 222.672 1084.01 222.592 1084.19 222.432C1084.37 222.272 1084.46 222.037 1084.46 221.728V221.296C1084.46 220.987 1084.37 220.752 1084.19 220.592C1084.01 220.421 1083.76 220.336 1083.46 220.336H1081.01V222.672H1083.46ZM1083.23 219.136C1083.53 219.136 1083.76 219.061 1083.92 218.912C1084.08 218.763 1084.16 218.549 1084.16 218.272V217.872C1084.16 217.595 1084.08 217.381 1083.92 217.232C1083.76 217.083 1083.53 217.008 1083.23 217.008H1081.01V219.136H1083.23Z" fill="white"/>
<path d="M1284.25 191.832H1289.2C1290.12 191.832 1290.85 192.093 1291.37 192.616C1291.91 193.139 1292.17 193.837 1292.17 194.712C1292.17 195.128 1292.11 195.485 1292 195.784C1291.88 196.072 1291.73 196.312 1291.55 196.504C1291.37 196.685 1291.16 196.824 1290.92 196.92C1290.69 197.005 1290.46 197.059 1290.24 197.08V197.176C1290.46 197.187 1290.71 197.24 1290.97 197.336C1291.25 197.432 1291.51 197.587 1291.74 197.8C1291.97 198.003 1292.17 198.269 1292.33 198.6C1292.49 198.92 1292.57 199.315 1292.57 199.784C1292.57 200.232 1292.5 200.653 1292.35 201.048C1292.21 201.443 1292.01 201.784 1291.76 202.072C1291.5 202.36 1291.2 202.589 1290.84 202.76C1290.49 202.92 1290.11 203 1289.69 203H1284.25V191.832ZM1286.06 201.448H1289.16C1289.63 201.448 1290 201.325 1290.27 201.08C1290.53 200.835 1290.67 200.483 1290.67 200.024V199.48C1290.67 199.021 1290.53 198.669 1290.27 198.424C1290 198.179 1289.63 198.056 1289.16 198.056H1286.06V201.448ZM1286.06 196.552H1288.86C1289.31 196.552 1289.65 196.44 1289.9 196.216C1290.15 195.981 1290.27 195.651 1290.27 195.224V194.712C1290.27 194.285 1290.15 193.96 1289.9 193.736C1289.65 193.501 1289.31 193.384 1288.86 193.384H1286.06V196.552ZM1294.67 194.68H1296.38V198.744L1296.22 200.712H1296.29L1297.28 198.936L1300.16 194.68H1301.74V203H1300.03V198.936L1300.19 196.968H1300.13L1299.13 198.744L1296.25 203H1294.67V194.68ZM1306.83 203.192C1305.99 203.192 1305.31 203.053 1304.78 202.776C1304.24 202.499 1303.79 202.104 1303.4 201.592L1304.54 200.552C1304.79 200.925 1305.11 201.219 1305.48 201.432C1305.87 201.645 1306.31 201.752 1306.83 201.752C1307.42 201.752 1307.86 201.645 1308.14 201.432C1308.43 201.219 1308.57 200.941 1308.57 200.6V200.408C1308.57 200.067 1308.45 199.811 1308.22 199.64C1307.99 199.459 1307.67 199.368 1307.24 199.368H1305.45V198.088H1307.07C1307.49 198.088 1307.82 198.008 1308.04 197.848C1308.28 197.677 1308.39 197.432 1308.39 197.112V196.936C1308.39 196.627 1308.27 196.381 1308.01 196.2C1307.75 196.019 1307.35 195.928 1306.79 195.928C1306.29 195.928 1305.87 196.029 1305.51 196.232C1305.16 196.435 1304.88 196.707 1304.67 197.048L1303.58 196.104C1303.9 195.613 1304.32 195.224 1304.86 194.936C1305.4 194.637 1306.08 194.488 1306.91 194.488C1308.01 194.488 1308.84 194.696 1309.37 195.112C1309.91 195.517 1310.19 196.061 1310.19 196.744C1310.19 197.277 1310.05 197.693 1309.77 197.992C1309.49 198.28 1309.08 198.477 1308.52 198.584V198.664C1309.13 198.739 1309.59 198.941 1309.9 199.272C1310.22 199.603 1310.38 200.029 1310.38 200.552C1310.38 201.373 1310.06 202.019 1309.42 202.488C1308.79 202.957 1307.92 203.192 1306.83 203.192ZM1317.45 194.68H1319.13L1315.62 204.648C1315.53 204.925 1315.41 205.16 1315.29 205.352C1315.17 205.555 1315.03 205.715 1314.85 205.832C1314.69 205.96 1314.5 206.051 1314.26 206.104C1314.03 206.168 1313.75 206.2 1313.43 206.2H1312.42V204.776H1313.83L1314.31 203.368L1311.29 194.68H1313.03L1314.69 199.576L1315.17 201.384H1315.25L1315.78 199.576L1317.45 194.68ZM1326.44 203C1325.98 203 1325.63 202.872 1325.38 202.616C1325.14 202.349 1324.99 202.013 1324.93 201.608H1324.85C1324.69 202.131 1324.4 202.525 1323.97 202.792C1323.55 203.059 1323.03 203.192 1322.42 203.192C1321.56 203.192 1320.89 202.968 1320.42 202.52C1319.96 202.072 1319.73 201.469 1319.73 200.712C1319.73 199.88 1320.03 199.256 1320.63 198.84C1321.24 198.424 1322.12 198.216 1323.29 198.216H1324.79V197.512C1324.79 197 1324.65 196.605 1324.37 196.328C1324.1 196.051 1323.67 195.912 1323.08 195.912C1322.59 195.912 1322.19 196.019 1321.88 196.232C1321.57 196.445 1321.31 196.717 1321.09 197.048L1320.05 196.104C1320.33 195.635 1320.72 195.251 1321.22 194.952C1321.72 194.643 1322.38 194.488 1323.19 194.488C1324.27 194.488 1325.09 194.739 1325.67 195.24C1326.25 195.741 1326.53 196.461 1326.53 197.4V201.576H1327.41V203H1326.44ZM1322.92 201.864C1323.46 201.864 1323.91 201.747 1324.26 201.512C1324.61 201.267 1324.79 200.941 1324.79 200.536V199.336H1323.32C1322.11 199.336 1321.51 199.709 1321.51 200.456V200.744C1321.51 201.117 1321.63 201.4 1321.88 201.592C1322.13 201.773 1322.48 201.864 1322.92 201.864ZM1328.15 201.576H1329.23C1329.36 201.405 1329.47 201.203 1329.57 200.968C1329.67 200.723 1329.75 200.424 1329.81 200.072C1329.87 199.72 1329.92 199.309 1329.95 198.84C1330 198.36 1330.02 197.8 1330.02 197.16V194.68H1336.07V203H1334.32V196.104H1331.7V197.24C1331.7 198.008 1331.67 198.68 1331.6 199.256C1331.55 199.832 1331.47 200.328 1331.36 200.744C1331.27 201.16 1331.14 201.507 1330.99 201.784C1330.85 202.051 1330.71 202.264 1330.55 202.424C1330.32 202.648 1330.07 202.808 1329.78 202.904C1329.49 203 1329.14 203.048 1328.74 203.048H1328.15V201.576ZM1338.58 194.68H1340.29V198.744L1340.13 200.712H1340.19L1341.18 198.936L1344.06 194.68H1345.65V203H1343.94V198.936L1344.1 196.968H1344.03L1343.04 198.744L1340.16 203H1338.58V194.68ZM1350.73 203.192C1349.9 203.192 1349.22 203.053 1348.68 202.776C1348.15 202.499 1347.69 202.104 1347.31 201.592L1348.44 200.552C1348.7 200.925 1349.01 201.219 1349.39 201.432C1349.77 201.645 1350.22 201.752 1350.73 201.752C1351.33 201.752 1351.77 201.645 1352.04 201.432C1352.33 201.219 1352.48 200.941 1352.48 200.6V200.408C1352.48 200.067 1352.36 199.811 1352.12 199.64C1351.9 199.459 1351.57 199.368 1351.15 199.368H1349.36V198.088H1350.97C1351.4 198.088 1351.72 198.008 1351.95 197.848C1352.18 197.677 1352.3 197.432 1352.3 197.112V196.936C1352.3 196.627 1352.17 196.381 1351.92 196.2C1351.66 196.019 1351.25 195.928 1350.7 195.928C1350.2 195.928 1349.77 196.029 1349.42 196.232C1349.07 196.435 1348.78 196.707 1348.57 197.048L1347.48 196.104C1347.8 195.613 1348.23 195.224 1348.76 194.936C1349.31 194.637 1349.99 194.488 1350.81 194.488C1351.92 194.488 1352.74 194.696 1353.28 195.112C1353.82 195.517 1354.09 196.061 1354.09 196.744C1354.09 197.277 1353.95 197.693 1353.68 197.992C1353.4 198.28 1352.98 198.477 1352.43 198.584V198.664C1353.04 198.739 1353.49 198.941 1353.8 199.272C1354.12 199.603 1354.28 200.029 1354.28 200.552C1354.28 201.373 1353.96 202.019 1353.32 202.488C1352.69 202.957 1351.83 203.192 1350.73 203.192ZM1362.41 203C1361.95 203 1361.6 202.872 1361.35 202.616C1361.11 202.349 1360.96 202.013 1360.9 201.608H1360.82C1360.66 202.131 1360.37 202.525 1359.94 202.792C1359.52 203.059 1359 203.192 1358.39 203.192C1357.53 203.192 1356.86 202.968 1356.39 202.52C1355.93 202.072 1355.7 201.469 1355.7 200.712C1355.7 199.88 1356 199.256 1356.6 198.84C1357.21 198.424 1358.09 198.216 1359.26 198.216H1360.76V197.512C1360.76 197 1360.62 196.605 1360.34 196.328C1360.07 196.051 1359.63 195.912 1359.05 195.912C1358.56 195.912 1358.16 196.019 1357.85 196.232C1357.54 196.445 1357.28 196.717 1357.06 197.048L1356.02 196.104C1356.3 195.635 1356.69 195.251 1357.19 194.952C1357.69 194.643 1358.35 194.488 1359.16 194.488C1360.24 194.488 1361.06 194.739 1361.64 195.24C1362.22 195.741 1362.5 196.461 1362.5 197.4V201.576H1363.38V203H1362.41ZM1358.89 201.864C1359.43 201.864 1359.88 201.747 1360.23 201.512C1360.58 201.267 1360.76 200.941 1360.76 200.536V199.336H1359.29C1358.08 199.336 1357.48 199.709 1357.48 200.456V200.744C1357.48 201.117 1357.6 201.4 1357.85 201.592C1358.1 201.773 1358.45 201.864 1358.89 201.864ZM1371.75 203H1365.09V194.68H1366.84V201.576H1370.18V194.68H1371.92V201.576H1373.33V205.24H1371.75V203ZM1374.92 194.68H1376.63V198.744L1376.47 200.712H1376.54L1377.53 198.936L1380.41 194.68H1381.99V203H1380.28V198.936L1380.44 196.968H1380.38L1379.38 198.744L1376.5 203H1374.92V194.68ZM1383.89 201.576H1384.79L1385.25 200.552C1385.48 200.083 1385.8 199.821 1386.21 199.768V199.704C1385.53 199.629 1385 199.395 1384.61 199C1384.24 198.595 1384.05 198.045 1384.05 197.352C1384.05 196.936 1384.12 196.568 1384.24 196.248C1384.38 195.917 1384.57 195.635 1384.82 195.4C1385.06 195.165 1385.36 194.989 1385.7 194.872C1386.04 194.744 1386.42 194.68 1386.84 194.68H1390.88V203H1389.14V199.928H1387.36L1386.48 201.832C1386.28 202.28 1386.05 202.589 1385.8 202.76C1385.54 202.92 1385.24 203 1384.88 203H1383.89V201.576ZM1389.14 198.6V196.04H1387.17C1386.77 196.04 1386.45 196.131 1386.21 196.312C1385.98 196.483 1385.86 196.755 1385.86 197.128V197.544C1385.86 197.896 1385.98 198.163 1386.21 198.344C1386.45 198.515 1386.77 198.6 1387.17 198.6H1389.14ZM1292.14 215.68H1293.88V217.056H1293.96C1294.14 216.555 1294.44 216.171 1294.84 215.904C1295.26 215.627 1295.74 215.488 1296.3 215.488C1297.36 215.488 1298.17 215.872 1298.75 216.64C1299.32 217.397 1299.61 218.464 1299.61 219.84C1299.61 221.216 1299.32 222.288 1298.75 223.056C1298.17 223.813 1297.36 224.192 1296.3 224.192C1295.74 224.192 1295.26 224.053 1294.84 223.776C1294.44 223.499 1294.14 223.115 1293.96 222.624H1293.88V227.2H1292.14V215.68ZM1295.77 222.688C1296.38 222.688 1296.86 222.496 1297.23 222.112C1297.59 221.717 1297.77 221.2 1297.77 220.56V219.12C1297.77 218.48 1297.59 217.968 1297.23 217.584C1296.86 217.189 1296.38 216.992 1295.77 216.992C1295.24 216.992 1294.79 217.125 1294.43 217.392C1294.06 217.648 1293.88 217.989 1293.88 218.416V221.264C1293.88 221.691 1294.06 222.037 1294.43 222.304C1294.79 222.56 1295.24 222.688 1295.77 222.688ZM1304.87 224.192C1304.27 224.192 1303.74 224.091 1303.27 223.888C1302.8 223.685 1302.4 223.397 1302.07 223.024C1301.74 222.64 1301.49 222.181 1301.3 221.648C1301.13 221.104 1301.05 220.501 1301.05 219.84C1301.05 219.179 1301.13 218.581 1301.3 218.048C1301.49 217.504 1301.74 217.045 1302.07 216.672C1302.4 216.288 1302.8 215.995 1303.27 215.792C1303.74 215.589 1304.27 215.488 1304.87 215.488C1305.48 215.488 1306.01 215.595 1306.47 215.808C1306.94 216.021 1307.33 216.32 1307.64 216.704C1307.95 217.077 1308.18 217.515 1308.33 218.016C1308.49 218.517 1308.57 219.056 1308.57 219.632V220.288H1302.86V220.56C1302.86 221.2 1303.04 221.728 1303.42 222.144C1303.8 222.549 1304.34 222.752 1305.05 222.752C1305.56 222.752 1305.99 222.64 1306.34 222.416C1306.7 222.192 1306.99 221.888 1307.24 221.504L1308.26 222.512C1307.95 223.024 1307.51 223.435 1306.92 223.744C1306.33 224.043 1305.65 224.192 1304.87 224.192ZM1304.87 216.848C1304.57 216.848 1304.3 216.901 1304.04 217.008C1303.79 217.115 1303.58 217.264 1303.4 217.456C1303.23 217.648 1303.1 217.877 1303 218.144C1302.9 218.411 1302.86 218.704 1302.86 219.024V219.136H1306.73V218.976C1306.73 218.336 1306.56 217.824 1306.23 217.44C1305.9 217.045 1305.45 216.848 1304.87 216.848ZM1313.09 224.192C1312.26 224.192 1311.58 224.053 1311.04 223.776C1310.51 223.499 1310.05 223.104 1309.67 222.592L1310.8 221.552C1311.06 221.925 1311.37 222.219 1311.75 222.432C1312.13 222.645 1312.58 222.752 1313.09 222.752C1313.69 222.752 1314.13 222.645 1314.4 222.432C1314.69 222.219 1314.83 221.941 1314.83 221.6V221.408C1314.83 221.067 1314.72 220.811 1314.48 220.64C1314.26 220.459 1313.93 220.368 1313.51 220.368H1311.71V219.088H1313.33C1313.76 219.088 1314.08 219.008 1314.31 218.848C1314.54 218.677 1314.66 218.432 1314.66 218.112V217.936C1314.66 217.627 1314.53 217.381 1314.27 217.2C1314.02 217.019 1313.61 216.928 1313.06 216.928C1312.56 216.928 1312.13 217.029 1311.78 217.232C1311.43 217.435 1311.14 217.707 1310.93 218.048L1309.84 217.104C1310.16 216.613 1310.59 216.224 1311.12 215.936C1311.67 215.637 1312.35 215.488 1313.17 215.488C1314.28 215.488 1315.1 215.696 1315.63 216.112C1316.18 216.517 1316.45 217.061 1316.45 217.744C1316.45 218.277 1316.31 218.693 1316.03 218.992C1315.76 219.28 1315.34 219.477 1314.79 219.584V219.664C1315.39 219.739 1315.85 219.941 1316.16 220.272C1316.48 220.603 1316.64 221.029 1316.64 221.552C1316.64 222.373 1316.32 223.019 1315.68 223.488C1315.05 223.957 1314.19 224.192 1313.09 224.192ZM1323.71 215.68H1325.39L1321.89 225.648C1321.79 225.925 1321.68 226.16 1321.55 226.352C1321.43 226.555 1321.29 226.715 1321.12 226.832C1320.96 226.96 1320.76 227.051 1320.53 227.104C1320.29 227.168 1320.02 227.2 1319.7 227.2H1318.69V225.776H1320.1L1320.58 224.368L1317.55 215.68H1319.3L1320.96 220.576L1321.44 222.384H1321.52L1322.05 220.576L1323.71 215.68ZM1325.46 222.576H1326.55C1326.67 222.405 1326.79 222.203 1326.88 221.968C1326.98 221.723 1327.06 221.424 1327.12 221.072C1327.19 220.72 1327.23 220.309 1327.27 219.84C1327.31 219.36 1327.33 218.8 1327.33 218.16V215.68H1333.38V224H1331.63V217.104H1329.01V218.24C1329.01 219.008 1328.98 219.68 1328.91 220.256C1328.86 220.832 1328.78 221.328 1328.67 221.744C1328.58 222.16 1328.46 222.507 1328.31 222.784C1328.17 223.051 1328.02 223.264 1327.86 223.424C1327.63 223.648 1327.38 223.808 1327.09 223.904C1326.8 224 1326.46 224.048 1326.05 224.048H1325.46V222.576ZM1335.89 215.68H1337.63V218.464H1339.92C1340.75 218.464 1341.43 218.709 1341.94 219.2C1342.46 219.68 1342.72 220.357 1342.72 221.232C1342.72 222.117 1342.47 222.8 1341.95 223.28C1341.44 223.76 1340.77 224 1339.94 224H1335.89V215.68ZM1339.6 222.64C1340.01 222.64 1340.33 222.555 1340.56 222.384C1340.8 222.203 1340.91 221.925 1340.91 221.552V220.896C1340.91 220.523 1340.8 220.251 1340.56 220.08C1340.33 219.909 1340.01 219.824 1339.6 219.824H1337.63V222.64H1339.6ZM1345.41 217.104H1342.76V215.68H1349.81V217.104H1347.16V224H1345.41V217.104ZM1357.33 224C1356.87 224 1356.52 223.872 1356.27 223.616C1356.03 223.349 1355.88 223.013 1355.83 222.608H1355.75C1355.59 223.131 1355.29 223.525 1354.87 223.792C1354.44 224.059 1353.92 224.192 1353.31 224.192C1352.45 224.192 1351.78 223.968 1351.31 223.52C1350.85 223.072 1350.63 222.469 1350.63 221.712C1350.63 220.88 1350.92 220.256 1351.52 219.84C1352.13 219.424 1353.01 219.216 1354.18 219.216H1355.68V218.512C1355.68 218 1355.54 217.605 1355.27 217.328C1354.99 217.051 1354.56 216.912 1353.97 216.912C1353.48 216.912 1353.08 217.019 1352.77 217.232C1352.46 217.445 1352.2 217.717 1351.99 218.048L1350.95 217.104C1351.22 216.635 1351.61 216.251 1352.11 215.952C1352.61 215.643 1353.27 215.488 1354.08 215.488C1355.16 215.488 1355.99 215.739 1356.56 216.24C1357.14 216.741 1357.43 217.461 1357.43 218.4V222.576H1358.31V224H1357.33ZM1353.81 222.864C1354.35 222.864 1354.8 222.747 1355.15 222.512C1355.51 222.267 1355.68 221.941 1355.68 221.536V220.336H1354.21C1353 220.336 1352.4 220.709 1352.4 221.456V221.744C1352.4 222.117 1352.52 222.4 1352.77 222.592C1353.03 222.773 1353.37 222.864 1353.81 222.864ZM1361.45 217.104H1358.79V215.68H1365.85V217.104H1363.19V224H1361.45V217.104ZM1370.53 224.192C1369.95 224.192 1369.42 224.091 1368.94 223.888C1368.48 223.685 1368.08 223.397 1367.74 223.024C1367.41 222.64 1367.16 222.181 1366.98 221.648C1366.8 221.104 1366.7 220.501 1366.7 219.84C1366.7 219.179 1366.8 218.581 1366.98 218.048C1367.16 217.504 1367.41 217.045 1367.74 216.672C1368.08 216.288 1368.48 215.995 1368.94 215.792C1369.42 215.589 1369.95 215.488 1370.53 215.488C1371.1 215.488 1371.63 215.589 1372.1 215.792C1372.58 215.995 1372.98 216.288 1373.31 216.672C1373.64 217.045 1373.9 217.504 1374.08 218.048C1374.26 218.581 1374.35 219.179 1374.35 219.84C1374.35 220.501 1374.26 221.104 1374.08 221.648C1373.9 222.181 1373.64 222.64 1373.31 223.024C1372.98 223.397 1372.58 223.685 1372.1 223.888C1371.63 224.091 1371.1 224.192 1370.53 224.192ZM1370.53 222.752C1371.13 222.752 1371.61 222.571 1371.97 222.208C1372.33 221.835 1372.51 221.28 1372.51 220.544V219.136C1372.51 218.4 1372.33 217.851 1371.97 217.488C1371.61 217.115 1371.13 216.928 1370.53 216.928C1369.93 216.928 1369.45 217.115 1369.09 217.488C1368.73 217.851 1368.54 218.4 1368.54 219.136V220.544C1368.54 221.28 1368.73 221.835 1369.09 222.208C1369.45 222.571 1369.93 222.752 1370.53 222.752ZM1376.3 215.68H1380.73C1381.44 215.68 1381.99 215.872 1382.38 216.256C1382.77 216.64 1382.97 217.152 1382.97 217.792C1382.97 218.837 1382.41 219.429 1381.29 219.568V219.648C1381.96 219.701 1382.46 219.899 1382.78 220.24C1383.11 220.571 1383.27 221.008 1383.27 221.552C1383.27 221.904 1383.21 222.229 1383.1 222.528C1382.99 222.827 1382.83 223.088 1382.62 223.312C1382.41 223.525 1382.16 223.696 1381.86 223.824C1381.56 223.941 1381.23 224 1380.86 224H1376.3V215.68ZM1380.46 222.672C1380.76 222.672 1381.01 222.592 1381.19 222.432C1381.37 222.272 1381.46 222.037 1381.46 221.728V221.296C1381.46 220.987 1381.37 220.752 1381.19 220.592C1381.01 220.421 1380.76 220.336 1380.46 220.336H1378.01V222.672H1380.46ZM1380.23 219.136C1380.53 219.136 1380.76 219.061 1380.92 218.912C1381.08 218.763 1381.16 218.549 1381.16 218.272V217.872C1381.16 217.595 1381.08 217.381 1380.92 217.232C1380.76 217.083 1380.53 217.008 1380.23 217.008H1378.01V219.136H1380.23Z" fill="white"/>
<path d="M694.435 14.872H699.907V35.14H707.503V14.872H712.975V35.14H720.499V14.872H725.971V40H694.435V14.872ZM745.205 40C744.245 40 743.441 39.7 742.793 39.1C742.169 38.5 741.773 37.696 741.605 36.688H741.389C741.101 37.912 740.465 38.848 739.481 39.496C738.497 40.12 737.285 40.432 735.845 40.432C733.949 40.432 732.497 39.928 731.489 38.92C730.481 37.912 729.977 36.58 729.977 34.924C729.977 32.932 730.697 31.456 732.137 30.496C733.601 29.512 735.581 29.02 738.077 29.02H741.065V27.832C741.065 26.92 740.825 26.2 740.345 25.672C739.865 25.12 739.061 24.844 737.933 24.844C736.877 24.844 736.037 25.072 735.413 25.528C734.789 25.984 734.273 26.5 733.865 27.076L730.697 24.268C731.465 23.14 732.425 22.264 733.577 21.64C734.753 20.992 736.337 20.668 738.329 20.668C741.017 20.668 743.033 21.256 744.377 22.432C745.721 23.608 746.393 25.324 746.393 27.58V35.86H748.157V40H745.205ZM737.825 36.724C738.713 36.724 739.469 36.532 740.093 36.148C740.741 35.764 741.065 35.14 741.065 34.276V32.044H738.473C736.385 32.044 735.341 32.752 735.341 34.168V34.708C735.341 35.404 735.557 35.92 735.989 36.256C736.421 36.568 737.033 36.724 737.825 36.724ZM751.733 21.1H764.513V25.24H757.061V40H751.733V21.1ZM783.185 24.808C784.529 24.808 785.501 24.556 786.101 24.052C786.725 23.524 787.037 22.876 787.037 22.108V21.856C787.037 20.944 786.737 20.212 786.137 19.66C785.561 19.108 784.733 18.832 783.653 18.832C782.645 18.832 781.697 19.096 780.809 19.624C779.921 20.128 779.165 20.86 778.541 21.82L775.157 18.652C775.637 18.028 776.153 17.464 776.705 16.96C777.257 16.432 777.881 15.988 778.577 15.628C779.273 15.244 780.053 14.956 780.917 14.764C781.781 14.548 782.753 14.44 783.833 14.44C785.177 14.44 786.389 14.596 787.469 14.908C788.573 15.22 789.509 15.676 790.277 16.276C791.069 16.852 791.669 17.548 792.077 18.364C792.509 19.18 792.725 20.092 792.725 21.1C792.725 21.892 792.593 22.612 792.329 23.26C792.089 23.908 791.741 24.472 791.285 24.952C790.853 25.432 790.349 25.828 789.773 26.14C789.197 26.428 788.585 26.632 787.937 26.752V26.968C788.681 27.112 789.365 27.352 789.989 27.688C790.637 28 791.189 28.408 791.645 28.912C792.125 29.416 792.497 30.016 792.761 30.712C793.025 31.384 793.157 32.152 793.157 33.016C793.157 34.144 792.929 35.164 792.473 36.076C792.017 36.988 791.369 37.768 790.529 38.416C789.689 39.064 788.681 39.568 787.505 39.928C786.329 40.264 785.033 40.432 783.617 40.432C782.345 40.432 781.217 40.3 780.233 40.036C779.249 39.772 778.385 39.424 777.641 38.992C776.921 38.536 776.285 38.02 775.733 37.444C775.205 36.868 774.737 36.256 774.329 35.608L778.325 32.512C778.877 33.544 779.549 34.396 780.341 35.068C781.157 35.716 782.249 36.04 783.617 36.04C784.841 36.04 785.789 35.74 786.461 35.14C787.157 34.516 787.505 33.676 787.505 32.62V32.404C787.505 31.372 787.109 30.604 786.317 30.1C785.549 29.572 784.481 29.308 783.113 29.308H780.845V24.808H783.185Z" fill="white"/>
<path d="M991.435 14.872H996.907V35.14H1004.5V14.872H1009.97V35.14H1017.5V14.872H1022.97V40H991.435V14.872ZM1042.2 40C1041.24 40 1040.44 39.7 1039.79 39.1C1039.17 38.5 1038.77 37.696 1038.6 36.688H1038.39C1038.1 37.912 1037.46 38.848 1036.48 39.496C1035.5 40.12 1034.28 40.432 1032.84 40.432C1030.95 40.432 1029.5 39.928 1028.49 38.92C1027.48 37.912 1026.98 36.58 1026.98 34.924C1026.98 32.932 1027.7 31.456 1029.14 30.496C1030.6 29.512 1032.58 29.02 1035.08 29.02H1038.06V27.832C1038.06 26.92 1037.82 26.2 1037.34 25.672C1036.86 25.12 1036.06 24.844 1034.93 24.844C1033.88 24.844 1033.04 25.072 1032.41 25.528C1031.79 25.984 1031.27 26.5 1030.86 27.076L1027.7 24.268C1028.46 23.14 1029.42 22.264 1030.58 21.64C1031.75 20.992 1033.34 20.668 1035.33 20.668C1038.02 20.668 1040.03 21.256 1041.38 22.432C1042.72 23.608 1043.39 25.324 1043.39 27.58V35.86H1045.16V40H1042.2ZM1034.82 36.724C1035.71 36.724 1036.47 36.532 1037.09 36.148C1037.74 35.764 1038.06 35.14 1038.06 34.276V32.044H1035.47C1033.38 32.044 1032.34 32.752 1032.34 34.168V34.708C1032.34 35.404 1032.56 35.92 1032.99 36.256C1033.42 36.568 1034.03 36.724 1034.82 36.724ZM1048.73 21.1H1061.51V25.24H1054.06V40H1048.73V21.1ZM1082.88 40V35.176H1071.83V30.568L1081.62 14.872H1088.03V31H1091.2V35.176H1088.03V40H1082.88ZM1076.15 31H1082.88V20.452H1082.52L1076.15 31Z" fill="white"/>
<path d="M1288.43 14.872H1293.91V35.14H1301.5V14.872H1306.97V35.14H1314.5V14.872H1319.97V40H1288.43V14.872ZM1339.2 40C1338.24 40 1337.44 39.7 1336.79 39.1C1336.17 38.5 1335.77 37.696 1335.6 36.688H1335.39C1335.1 37.912 1334.46 38.848 1333.48 39.496C1332.5 40.12 1331.28 40.432 1329.84 40.432C1327.95 40.432 1326.5 39.928 1325.49 38.92C1324.48 37.912 1323.98 36.58 1323.98 34.924C1323.98 32.932 1324.7 31.456 1326.14 30.496C1327.6 29.512 1329.58 29.02 1332.08 29.02H1335.06V27.832C1335.06 26.92 1334.82 26.2 1334.34 25.672C1333.86 25.12 1333.06 24.844 1331.93 24.844C1330.88 24.844 1330.04 25.072 1329.41 25.528C1328.79 25.984 1328.27 26.5 1327.86 27.076L1324.7 24.268C1325.46 23.14 1326.42 22.264 1327.58 21.64C1328.75 20.992 1330.34 20.668 1332.33 20.668C1335.02 20.668 1337.03 21.256 1338.38 22.432C1339.72 23.608 1340.39 25.324 1340.39 27.58V35.86H1342.16V40H1339.2ZM1331.82 36.724C1332.71 36.724 1333.47 36.532 1334.09 36.148C1334.74 35.764 1335.06 35.14 1335.06 34.276V32.044H1332.47C1330.38 32.044 1329.34 32.752 1329.34 34.168V34.708C1329.34 35.404 1329.56 35.92 1329.99 36.256C1330.42 36.568 1331.03 36.724 1331.82 36.724ZM1345.73 21.1H1358.51V25.24H1351.06V40H1345.73V21.1ZM1386.54 19.588H1375.13L1374.59 27.544H1374.88C1375.12 26.944 1375.38 26.404 1375.67 25.924C1375.98 25.42 1376.34 25 1376.75 24.664C1377.16 24.304 1377.65 24.028 1378.23 23.836C1378.8 23.644 1379.49 23.548 1380.28 23.548C1381.36 23.548 1382.37 23.728 1383.3 24.088C1384.24 24.448 1385.06 24.976 1385.75 25.672C1386.45 26.344 1387 27.184 1387.41 28.192C1387.82 29.176 1388.02 30.292 1388.02 31.54C1388.02 32.812 1387.8 34 1387.37 35.104C1386.96 36.184 1386.34 37.12 1385.5 37.912C1384.68 38.704 1383.68 39.328 1382.48 39.784C1381.28 40.216 1379.91 40.432 1378.37 40.432C1377.15 40.432 1376.07 40.3 1375.13 40.036C1374.2 39.772 1373.37 39.424 1372.65 38.992C1371.93 38.536 1371.3 38.02 1370.78 37.444C1370.25 36.868 1369.79 36.256 1369.41 35.608L1373.33 32.512C1373.88 33.496 1374.54 34.336 1375.31 35.032C1376.08 35.704 1377.11 36.04 1378.41 36.04C1379.7 36.04 1380.68 35.668 1381.32 34.924C1382 34.18 1382.33 33.196 1382.33 31.972V31.684C1382.33 30.532 1382 29.62 1381.32 28.948C1380.65 28.276 1379.73 27.94 1378.55 27.94C1377.57 27.94 1376.75 28.144 1376.1 28.552C1375.48 28.936 1375 29.32 1374.66 29.704L1370.24 29.092L1371.17 14.872H1386.54V19.588Z" fill="white"/>
<path d="M1506 122.5C1507.11 122.5 1508 121.605 1508 120.5C1508 119.395 1507.11 118.5 1506 118.5V122.5ZM-0.000183105 122.5H1506V118.5H-0.000183105V122.5Z" fill="white"/>
<circle cx="149.501" cy="118.5" r="54.5" fill="#D9D9D9"/>
<circle cx="446.501" cy="118.5" r="54.5" fill="#D9D9D9"/>
<circle cx="743.501" cy="118.5" r="54.5" fill="#D9D9D9"/>
<circle cx="1337.5" cy="119.5" r="54.5" fill="#D9D9D9"/>
<circle cx="1040.5" cy="118.5" r="54.5" fill="#D9D9D9"/>
<g clip-path="url(#clip1_0_1)">
<path d="M145.735 88H155.266C156.851 88 158.126 89.2748 158.126 90.8594V110.875H168.574C170.695 110.875 171.755 113.437 170.254 114.938L152.133 133.071C151.239 133.964 149.774 133.964 148.88 133.071L130.735 114.938C129.234 113.437 130.294 110.875 132.415 110.875H142.876V90.8594C142.876 89.2748 144.15 88 145.735 88ZM181.001 132.797V146.141C181.001 147.725 179.726 149 178.141 149H122.86C121.275 149 120.001 147.725 120.001 146.141V132.797C120.001 131.212 121.275 129.938 122.86 129.938H140.338L146.176 135.775C148.571 138.17 152.431 138.17 154.825 135.775L160.663 129.938H178.141C179.726 129.938 181.001 131.212 181.001 132.797ZM166.227 143.281C166.227 141.971 165.155 140.898 163.844 140.898C162.534 140.898 161.462 141.971 161.462 143.281C161.462 144.592 162.534 145.664 163.844 145.664C165.155 145.664 166.227 144.592 166.227 143.281ZM173.852 143.281C173.852 141.971 172.78 140.898 171.469 140.898C170.159 140.898 169.087 141.971 169.087 143.281C169.087 144.592 170.159 145.664 171.469 145.664C172.78 145.664 173.852 144.592 173.852 143.281Z" fill="#0E1117"/>
</g>
<g clip-path="url(#clip2_0_1)">
<path d="M733.289 118.865C733.04 118.371 732.824 117.859 732.647 117.327L728.251 116.594V110.875L732.647 110.142C732.824 109.61 733.04 109.097 733.289 108.604L730.695 104.973L734.74 100.929L738.37 103.523C738.864 103.274 739.377 103.057 739.908 102.881L740.641 98.4844H746.36L747.093 102.881C747.625 103.057 748.138 103.274 748.631 103.523L752.262 100.929L756.306 104.973L753.712 108.604C753.961 109.097 754.178 109.61 754.354 110.142L758.751 110.875V116.594L754.354 117.327C754.178 117.859 753.961 118.371 753.712 118.865L756.306 122.496L752.262 126.54L748.631 123.946C748.138 124.195 747.625 124.412 747.093 124.588L746.36 128.984H740.641L739.908 124.588C739.377 124.411 738.864 124.195 738.37 123.946L734.74 126.54L730.695 122.496L733.289 118.865Z" fill="#0E1117"/>
<path d="M743.501 148.047C741.924 148.047 740.641 146.764 740.641 145.188C740.641 143.611 741.924 142.328 743.501 142.328C745.077 142.328 746.36 143.611 746.36 145.188C746.36 146.764 745.077 148.047 743.501 148.047ZM743.501 144.234C742.975 144.234 742.548 144.662 742.548 145.188C742.548 145.713 742.975 146.141 743.501 146.141C744.027 146.141 744.454 145.713 744.454 145.188C744.454 144.662 744.027 144.234 743.501 144.234Z" fill="#0E1117"/>
<path d="M770.188 148.047C768.612 148.047 767.329 146.764 767.329 145.188C767.329 143.611 768.612 142.328 770.188 142.328C771.765 142.328 773.048 143.611 773.048 145.188C773.048 146.764 771.765 148.047 770.188 148.047ZM770.188 144.234C769.662 144.234 769.235 144.662 769.235 145.188C769.235 145.713 769.662 146.141 770.188 146.141C770.714 146.141 771.141 145.713 771.141 145.188C771.141 144.662 770.714 144.234 770.188 144.234Z" fill="#0E1117"/>
<path d="M716.813 148.047C715.237 148.047 713.954 146.764 713.954 145.188C713.954 143.611 715.237 142.328 716.813 142.328C718.39 142.328 719.673 143.611 719.673 145.188C719.673 146.764 718.39 148.047 716.813 148.047ZM716.813 144.234C716.287 144.234 715.86 144.662 715.86 145.188C715.86 145.713 716.287 146.141 716.813 146.141C717.339 146.141 717.766 145.713 717.766 145.188C717.766 144.662 717.339 144.234 716.813 144.234Z" fill="#0E1117"/>
<path d="M716.813 138.516C715.237 138.516 713.954 137.233 713.954 135.656C713.954 134.08 715.237 132.797 716.813 132.797C718.39 132.797 719.673 134.08 719.673 135.656C719.673 137.233 718.39 138.516 716.813 138.516ZM716.813 134.703C716.287 134.703 715.86 135.131 715.86 135.656C715.86 136.181 716.287 136.609 716.813 136.609C717.339 136.609 717.766 136.181 717.766 135.656C717.766 135.131 717.339 134.703 716.813 134.703Z" fill="#0E1117"/>
<path d="M744.454 131.844H742.548V140.422H744.454V131.844Z" fill="#0E1117"/>
<path d="M727.298 146.141H721.579V144.234H727.298C729.925 144.234 732.063 142.097 732.063 139.469V128.031H733.969V139.469C733.969 143.148 730.976 146.141 727.298 146.141Z" fill="#0E1117"/>
<path d="M725.391 136.609H721.579V134.703H725.391C725.917 134.703 726.344 134.275 726.344 133.75V119.453H728.251V133.75C728.251 135.326 726.968 136.609 725.391 136.609Z" fill="#0E1117"/>
<path d="M770.188 138.516C768.612 138.516 767.329 137.233 767.329 135.656C767.329 134.08 768.612 132.797 770.188 132.797C771.765 132.797 773.048 134.08 773.048 135.656C773.048 137.233 771.765 138.516 770.188 138.516ZM770.188 134.703C769.662 134.703 769.235 135.131 769.235 135.656C769.235 136.181 769.662 136.609 770.188 136.609C770.714 136.609 771.141 136.181 771.141 135.656C771.141 135.131 770.714 134.703 770.188 134.703Z" fill="#0E1117"/>
<path d="M765.423 146.141H759.704C756.026 146.141 753.032 143.148 753.032 139.469V128.031H754.938V139.469C754.938 142.097 757.076 144.234 759.704 144.234H765.423V146.141Z" fill="#0E1117"/>
<path d="M765.423 136.609H761.61C760.034 136.609 758.751 135.326 758.751 133.75V119.453H760.657V133.75C760.657 134.275 761.084 134.703 761.61 134.703H765.423V136.609Z" fill="#0E1117"/>
<path d="M743.501 105.156C738.77 105.156 734.923 109.005 734.923 113.734C734.923 118.464 738.77 122.312 743.501 122.312C748.231 122.312 752.079 118.464 752.079 113.734C752.079 109.005 748.231 105.156 743.501 105.156ZM742.548 113.734C742.548 113.209 742.975 112.781 743.501 112.781C744.027 112.781 744.454 113.209 744.454 113.734C744.454 114.26 744.027 114.688 743.501 114.688C742.975 114.688 742.548 114.26 742.548 113.734ZM744.454 120.33V116.418C745.56 116.024 746.36 114.975 746.36 113.734C746.36 112.158 745.077 110.875 743.501 110.875C741.924 110.875 740.641 112.158 740.641 113.734C740.641 114.975 741.441 116.024 742.548 116.418V120.33C739.32 119.865 736.829 117.088 736.829 113.734C736.829 110.055 739.823 107.062 743.501 107.062C747.179 107.062 750.173 110.055 750.173 113.734C750.173 117.088 747.681 119.865 744.454 120.33Z" fill="#0E1117"/>
<path d="M754.564 108.175L752.86 109.032C753.097 109.5 753.294 109.974 753.448 110.44L753.629 110.987L757.798 111.682V115.786L753.63 116.481L753.449 117.027C753.296 117.493 753.098 117.967 752.861 118.437L752.603 118.951L755.062 122.394L752.16 125.295L748.718 122.836L748.203 123.095C747.735 123.331 747.261 123.53 746.795 123.683L746.249 123.863L745.552 128.031H741.449L740.754 123.863L740.208 123.683C739.743 123.53 739.268 123.331 738.799 123.095L738.284 122.836L734.842 125.295L731.368 121.822L730.021 123.169L734.636 127.784L738.468 125.047C738.665 125.136 738.863 125.219 739.061 125.295L739.833 129.938H747.166L747.94 125.296C748.139 125.219 748.336 125.137 748.533 125.048L752.366 127.785L757.55 122.598L754.813 118.767C754.902 118.57 754.985 118.371 755.061 118.174L759.704 117.401V110.068L755.061 109.294C754.917 108.92 754.75 108.546 754.564 108.175Z" fill="#0E1117"/>
<path d="M727.298 110.068V117.401L731.94 118.175C732.084 118.549 732.251 118.922 732.437 119.293L734.14 118.437C733.904 117.967 733.705 117.493 733.552 117.027L733.372 116.481L729.204 115.786V111.682L733.372 110.987L733.552 110.441C733.706 109.975 733.904 109.501 734.14 109.033L734.398 108.518L731.939 105.075L734.842 102.174L738.283 104.633L738.798 104.374C739.266 104.137 739.741 103.939 740.207 103.786L740.753 103.606L741.45 99.4375H745.553L746.248 103.606L746.794 103.786C747.259 103.939 747.733 104.137 748.202 104.374L748.717 104.633L752.159 102.174L755.632 105.647L756.98 104.299L752.366 99.6844L748.533 102.421C748.336 102.332 748.139 102.249 747.94 102.173L747.167 97.5312H739.834L739.061 102.173C738.863 102.25 738.665 102.332 738.468 102.421L734.636 99.6834L729.45 104.87L732.187 108.702C732.099 108.899 732.016 109.096 731.94 109.294L727.298 110.068Z" fill="#0E1117"/>
<path d="M744.454 101.344H742.548V103.25H744.454V101.344Z" fill="#0E1117"/>
<path d="M735.413 104.299L734.065 105.647L735.413 106.995L736.761 105.647L735.413 104.299Z" fill="#0E1117"/>
<path d="M733.016 112.781H731.11V114.688H733.016V112.781Z" fill="#0E1117"/>
<path d="M735.413 120.474L734.065 121.821L735.413 123.169L736.761 121.821L735.413 120.474Z" fill="#0E1117"/>
<path d="M744.454 124.219H742.548V126.125H744.454V124.219Z" fill="#0E1117"/>
<path d="M751.587 120.474L750.239 121.822L751.587 123.17L752.935 121.822L751.587 120.474Z" fill="#0E1117"/>
<path d="M755.891 112.781H753.985V114.688H755.891V112.781Z" fill="#0E1117"/>
<path d="M751.588 104.299L750.24 105.647L751.588 106.995L752.936 105.647L751.588 104.299Z" fill="#0E1117"/>
<path d="M765.423 102.297C765.085 102.297 764.753 102.326 764.425 102.369C763.982 98.0517 760.324 94.6719 755.891 94.6719C754.919 94.6719 753.966 94.8434 753.067 95.158C751.396 91.4046 747.693 88.9531 743.501 88.9531C739.307 88.9531 735.605 91.4036 733.934 95.157C733.033 94.8425 732.081 94.6719 731.11 94.6719C726.68 94.6719 723.025 98.0478 722.579 102.361C722.25 102.319 721.916 102.297 721.579 102.297C717.375 102.297 713.954 105.718 713.954 109.922C713.954 114.126 717.375 117.547 721.579 117.547H725.391V115.641H721.579C718.425 115.641 715.86 113.076 715.86 109.922C715.86 106.768 718.425 104.203 721.579 104.203C723.604 104.203 725.438 105.241 726.484 106.98L728.116 105.997C727.244 104.546 725.959 103.463 724.458 102.854C724.665 99.3593 727.565 96.5781 731.11 96.5781C732.737 96.5781 734.304 97.17 735.52 98.2442L736.782 96.8145C736.428 96.5019 736.048 96.2264 735.654 95.9796C737.01 92.8838 740.052 90.8594 743.501 90.8594C746.951 90.8594 749.994 92.8867 751.35 95.9843C750.653 96.4199 750.011 96.9489 749.457 97.577L750.886 98.838C752.153 97.4016 753.977 96.5781 755.891 96.5781C759.438 96.5781 762.338 99.3622 762.543 102.858C761.638 103.227 760.805 103.772 760.086 104.475L761.42 105.837C762.496 104.784 763.918 104.203 765.423 104.203C768.576 104.203 771.141 106.768 771.141 109.922C771.141 113.076 768.576 115.641 765.423 115.641H761.61V117.547H765.423C769.627 117.547 773.048 114.126 773.048 109.922C773.048 105.718 769.627 102.297 765.423 102.297Z" fill="#0E1117"/>
</g>
<g clip-path="url(#clip3_0_1)">
<path d="M1059.56 95.625H1021.44C1020.43 95.625 1019.46 96.0267 1018.74 96.7417C1018.03 97.4566 1017.63 98.4264 1017.63 99.4375V137.562C1017.63 138.574 1018.03 139.543 1018.74 140.258C1019.46 140.973 1020.43 141.375 1021.44 141.375H1047.34C1047.84 141.375 1048.34 141.277 1048.8 141.084C1049.26 140.892 1049.68 140.61 1050.03 140.255L1062.26 128.031C1062.61 127.679 1062.89 127.259 1063.09 126.797C1063.28 126.335 1063.38 125.839 1063.38 125.339V99.4375C1063.38 98.4264 1062.97 97.4566 1062.26 96.7417C1061.54 96.0267 1060.57 95.625 1059.56 95.625ZM1032.88 108.969H1048.13C1048.63 108.969 1049.12 109.17 1049.47 109.527C1049.83 109.885 1050.03 110.369 1050.03 110.875C1050.03 111.381 1049.83 111.865 1049.47 112.223C1049.12 112.58 1048.63 112.781 1048.13 112.781H1032.88C1032.37 112.781 1031.89 112.58 1031.53 112.223C1031.17 111.865 1030.97 111.381 1030.97 110.875C1030.97 110.369 1031.17 109.885 1031.53 109.527C1031.89 109.17 1032.37 108.969 1032.88 108.969ZM1040.5 128.031H1032.88C1032.37 128.031 1031.89 127.83 1031.53 127.473C1031.17 127.115 1030.97 126.631 1030.97 126.125C1030.97 125.619 1031.17 125.135 1031.53 124.777C1031.89 124.42 1032.37 124.219 1032.88 124.219H1040.5C1041.01 124.219 1041.49 124.42 1041.85 124.777C1042.21 125.135 1042.41 125.619 1042.41 126.125C1042.41 126.631 1042.21 127.115 1041.85 127.473C1041.49 127.83 1041.01 128.031 1040.5 128.031ZM1032.88 120.406C1032.37 120.406 1031.89 120.205 1031.53 119.848C1031.17 119.49 1030.97 119.006 1030.97 118.5C1030.97 117.994 1031.17 117.51 1031.53 117.152C1031.89 116.795 1032.37 116.594 1032.88 116.594H1048.13C1048.63 116.594 1049.12 116.795 1049.47 117.152C1049.83 117.51 1050.03 117.994 1050.03 118.5C1050.03 119.006 1049.83 119.49 1049.47 119.848C1049.12 120.205 1048.63 120.406 1048.13 120.406H1032.88ZM1048.13 136.776V126.125H1058.78L1048.13 136.776Z" fill="#0E1117"/>
</g>
<path d="M1324.64 110.307H1322.23V121.542H1324.64V110.307Z" fill="#0E1117"/>
<path d="M1370.54 129.59H1370.27H1305.76H1305.5C1304.67 129.59 1304 130.198 1304 130.945C1304 131.684 1304.67 132.286 1305.5 132.286H1330.58H1335.53H1335.55H1340.5H1340.55H1345.53H1370.54C1371.36 132.286 1372.03 131.684 1372.03 130.945C1372.03 130.198 1371.36 129.59 1370.54 129.59Z" fill="#0E1117"/>
<path d="M1330.45 116.399H1328.04V121.542H1330.45V116.399Z" fill="#0E1117"/>
<path d="M1318.84 115.094H1316.42V121.542H1318.84V115.094Z" fill="#0E1117"/>
<path d="M1341.53 133.234L1353.01 149H1356.73L1345.24 133.234H1341.53Z" fill="#0E1117"/>
<path d="M1336.26 112.566H1333.85V121.542H1336.26V112.566Z" fill="#0E1117"/>
<path d="M1353.8 110.307H1351.38V121.542H1353.8V110.307Z" fill="#0E1117"/>
<path d="M1347.99 116.399H1345.58V121.542H1347.99V116.399Z" fill="#0E1117"/>
<path d="M1335 141.618V134.373L1329.72 141.618H1335Z" fill="#0E1117"/>
<path d="M1330.86 133.234L1319.37 149H1323.09L1334.57 133.234H1330.86Z" fill="#0E1117"/>
<path d="M1339.97 133.234H1336.05V149H1339.97V133.234Z" fill="#0E1117"/>
<path d="M1342.18 112.566H1339.77V121.542H1342.18V112.566Z" fill="#0E1117"/>
<path d="M1339.72 89.5432C1339.72 88.7067 1338.94 88 1338.02 88C1337.09 88 1336.31 88.7067 1336.31 89.5432V91.9335H1339.72V89.5432Z" fill="#0E1117"/>
<path d="M1369.75 128.642V96.5114H1306.29V128.642H1369.75V128.642ZM1355.83 98.8982H1366.31C1366.61 98.8982 1366.84 99.1105 1366.84 99.3722C1366.84 99.634 1366.61 99.8461 1366.31 99.8461H1355.83C1355.54 99.8461 1355.3 99.634 1355.3 99.3722C1355.3 99.1105 1355.54 98.8982 1355.83 98.8982ZM1355.83 100.956H1366.31C1366.61 100.956 1366.84 101.168 1366.84 101.43C1366.84 101.692 1366.61 101.904 1366.31 101.904H1355.83C1355.54 101.904 1355.3 101.692 1355.3 101.43C1355.3 101.168 1355.54 100.956 1355.83 100.956ZM1355.83 103.712H1366.31C1366.61 103.712 1366.84 103.924 1366.84 104.186C1366.84 104.448 1366.61 104.66 1366.31 104.66H1355.83C1355.54 104.66 1355.3 104.448 1355.3 104.186C1355.3 103.924 1355.54 103.712 1355.83 103.712ZM1355.83 105.783H1366.31C1366.61 105.783 1366.84 105.995 1366.84 106.257C1366.84 106.518 1366.61 106.731 1366.31 106.731H1355.83C1355.54 106.731 1355.3 106.518 1355.3 106.257C1355.3 105.995 1355.54 105.783 1355.83 105.783ZM1360.66 114.62V122.016C1360.66 122.278 1360.42 122.49 1360.13 122.49H1356.67C1356.37 122.49 1356.14 122.277 1356.14 122.016V114.62C1356.14 114.358 1356.38 114.146 1356.67 114.146H1360.13C1360.42 114.146 1360.66 114.358 1360.66 114.62ZM1350.33 109.833C1350.33 109.572 1350.57 109.36 1350.86 109.36H1354.32C1354.61 109.36 1354.85 109.572 1354.85 109.833V122.016C1354.85 122.278 1354.61 122.49 1354.32 122.49H1350.86C1350.57 122.49 1350.33 122.278 1350.33 122.016V109.833ZM1344.53 115.925C1344.53 115.663 1344.76 115.451 1345.05 115.451H1348.51C1348.81 115.451 1349.04 115.663 1349.04 115.925V122.016C1349.04 122.278 1348.81 122.49 1348.51 122.49H1345.05C1344.76 122.49 1344.53 122.277 1344.53 122.016V115.925ZM1338.72 112.092C1338.72 111.831 1338.96 111.618 1339.25 111.618H1342.71C1343 111.618 1343.23 111.831 1343.23 112.092V122.016C1343.23 122.278 1343 122.49 1342.71 122.49H1339.25C1338.96 122.49 1338.72 122.277 1338.72 122.016V112.092ZM1332.8 112.092C1332.8 111.831 1333.03 111.618 1333.33 111.618H1336.79C1337.08 111.618 1337.31 111.831 1337.31 112.092V122.016C1337.31 122.278 1337.08 122.49 1336.79 122.49H1333.33C1333.03 122.49 1332.8 122.277 1332.8 122.016V112.092ZM1326.99 115.925C1326.99 115.663 1327.23 115.451 1327.52 115.451H1330.98C1331.27 115.451 1331.5 115.663 1331.5 115.925V122.016C1331.5 122.278 1331.27 122.49 1330.98 122.49H1327.52C1327.23 122.49 1326.99 122.277 1326.99 122.016V115.925ZM1321.18 109.833C1321.18 109.572 1321.42 109.36 1321.71 109.36H1325.17C1325.46 109.36 1325.69 109.572 1325.69 109.833V122.016C1325.69 122.278 1325.46 122.49 1325.17 122.49H1321.71C1321.42 122.49 1321.18 122.278 1321.18 122.016V109.833ZM1315.37 114.62C1315.37 114.358 1315.61 114.146 1315.9 114.146H1319.37C1319.66 114.146 1319.89 114.358 1319.89 114.62V122.016C1319.89 122.278 1319.66 122.49 1319.37 122.49H1315.9C1315.61 122.49 1315.37 122.277 1315.37 122.016V114.62ZM1314.67 123.304H1338.02H1361.36C1361.65 123.304 1361.88 123.516 1361.88 123.777C1361.88 124.039 1361.65 124.251 1361.36 124.251H1338.02H1314.67C1314.38 124.251 1314.14 124.039 1314.14 123.777C1314.14 123.516 1314.38 123.304 1314.67 123.304Z" fill="#0E1117"/>
<path d="M1359.61 115.094H1357.19V121.542H1359.61V115.094Z" fill="#0E1117"/>
<path d="M1341.02 141.618H1346.38L1341.02 134.271V141.618Z" fill="#0E1117"/>
<path d="M1305.5 95.5635H1305.76H1370.27H1370.54C1371.36 95.5635 1372.03 94.9619 1372.03 94.2225C1372.03 93.4954 1371.35 92.8815 1370.54 92.8815H1340.25H1335.79H1305.5C1304.67 92.8815 1304 93.483 1304 94.2225C1304 94.9619 1304.67 95.5635 1305.5 95.5635Z" fill="#0E1117"/>
<g clip-path="url(#clip4_0_1)">
<path d="M445.648 124.075C445.198 123.416 444.991 122.619 445.065 121.824C445.139 121.028 445.489 120.283 446.053 119.718L447.853 117.919C448.418 117.354 449.163 117.004 449.959 116.93C450.754 116.856 451.551 117.063 452.21 117.514L454.055 118.775C454.076 118.682 454.104 118.59 454.141 118.502C454.387 117.987 455.545 115.406 455.748 115.076C456.053 114.577 456.482 114.164 456.992 113.878C457.502 113.592 458.077 113.442 458.663 113.441H461.207C461.391 113.443 461.574 113.459 461.755 113.49C461.779 113.37 461.791 113.248 461.792 113.126V109.599C461.792 109.15 461.635 108.716 461.349 108.371C461.062 108.026 460.664 107.792 460.224 107.709L456.136 106.942C455.835 106.889 455.554 106.757 455.32 106.561C455.086 106.364 454.908 106.11 454.803 105.823C454.61 105.279 454.389 104.745 454.141 104.223C454.014 103.946 453.961 103.641 453.988 103.337C454.015 103.033 454.121 102.742 454.295 102.491L456.641 99.06C456.894 98.6897 457.01 98.2429 456.968 97.7965C456.927 97.3501 456.731 96.9322 456.414 96.6148L453.92 94.1208C453.603 93.8039 453.185 93.6077 452.738 93.5661C452.292 93.5246 451.845 93.6403 451.475 93.8932L448.043 96.2406C447.793 96.4151 447.501 96.521 447.198 96.5477C446.894 96.5745 446.588 96.5212 446.311 96.3931C445.789 96.1452 445.255 95.9246 444.71 95.7322C444.423 95.6268 444.169 95.4481 443.973 95.2141C443.777 94.9801 443.645 94.6987 443.592 94.3981L442.825 90.311C442.742 89.8703 442.509 89.4723 442.164 89.1858C441.819 88.8994 441.385 88.7426 440.936 88.7427H437.409C436.96 88.7429 436.526 88.8997 436.181 89.186C435.836 89.4723 435.602 89.8701 435.519 90.3107L434.752 94.3981C434.698 94.6987 434.567 94.98 434.37 95.214C434.174 95.448 433.92 95.6266 433.633 95.7319C433.089 95.924 432.555 96.1446 432.033 96.3928C431.756 96.5207 431.451 96.5738 431.147 96.5471C430.843 96.5203 430.551 96.4146 430.3 96.2403L426.869 93.8929C426.499 93.6402 426.052 93.5247 425.606 93.5662C425.159 93.6078 424.741 93.8038 424.424 94.1205L421.93 96.6148C421.614 96.9321 421.418 97.35 421.376 97.7963C421.334 98.2427 421.45 98.6896 421.702 99.06L424.05 102.491C424.224 102.742 424.33 103.033 424.357 103.337C424.384 103.641 424.33 103.947 424.202 104.224C423.954 104.745 423.733 105.28 423.541 105.824C423.436 106.111 423.257 106.365 423.023 106.561C422.789 106.757 422.508 106.889 422.208 106.942L418.121 107.709C417.68 107.792 417.282 108.026 416.996 108.371C416.709 108.716 416.552 109.15 416.552 109.599V113.126C416.552 113.575 416.709 114.009 416.996 114.354C417.282 114.699 417.68 114.933 418.121 115.016L422.207 115.783C422.508 115.836 422.789 115.968 423.023 116.164C423.257 116.361 423.436 116.615 423.541 116.902C423.733 117.447 423.954 117.98 424.202 118.502C424.33 118.779 424.384 119.085 424.357 119.388C424.33 119.692 424.224 119.984 424.05 120.234L421.703 123.666C421.45 124.036 421.334 124.483 421.376 124.929C421.417 125.376 421.614 125.793 421.931 126.11L424.424 128.605C424.741 128.922 425.159 129.118 425.606 129.159C426.052 129.201 426.499 129.085 426.869 128.832L430.301 126.485C430.551 126.311 430.843 126.206 431.147 126.179C431.451 126.152 431.756 126.205 432.034 126.333C432.555 126.581 433.089 126.802 433.634 126.994C433.92 127.099 434.174 127.278 434.371 127.512C434.567 127.746 434.699 128.027 434.753 128.328L435.52 132.415C435.602 132.856 435.837 133.254 436.182 133.54C436.527 133.826 436.961 133.983 437.409 133.983H440.937C441.189 133.982 441.439 133.93 441.672 133.832C441.612 133.583 441.58 133.329 441.576 133.073V130.529C441.577 129.955 441.721 129.391 441.995 128.888C442.27 128.384 442.666 127.958 443.148 127.648C444.427 127.069 445.744 126.579 447.089 126.182L445.648 124.075ZM439.172 118.614C437.738 118.614 436.336 118.189 435.144 117.392C433.951 116.595 433.022 115.463 432.473 114.138C431.924 112.813 431.78 111.355 432.06 109.948C432.34 108.541 433.031 107.249 434.045 106.235C435.059 105.221 436.351 104.531 437.757 104.251C439.164 103.971 440.622 104.115 441.947 104.663C443.272 105.212 444.404 106.142 445.201 107.334C445.998 108.527 446.423 109.929 446.423 111.363C446.423 113.286 445.659 115.13 444.299 116.49C442.939 117.85 441.095 118.614 439.172 118.614Z" fill="#0E1117"/>
<path d="M475.06 129.502L472.111 128.949C471.835 128.9 471.577 128.778 471.362 128.597C471.147 128.417 470.984 128.183 470.888 127.919C470.754 127.537 470.599 127.163 470.425 126.797C470.307 126.543 470.257 126.263 470.281 125.983C470.305 125.704 470.402 125.436 470.562 125.206L472.255 122.73C472.393 122.529 472.455 122.287 472.433 122.045C472.41 121.802 472.304 121.576 472.132 121.404L470.332 119.604C470.16 119.432 469.933 119.325 469.691 119.303C469.449 119.28 469.206 119.343 469.006 119.481L466.53 121.174C466.3 121.334 466.032 121.431 465.752 121.455C465.473 121.479 465.192 121.429 464.938 121.31C464.573 121.137 464.199 120.982 463.817 120.848C463.553 120.752 463.319 120.588 463.138 120.374C462.957 120.159 462.836 119.901 462.786 119.624L462.233 116.675C462.188 116.436 462.061 116.22 461.874 116.065C461.687 115.909 461.451 115.824 461.208 115.824H458.663C458.419 115.824 458.184 115.909 457.996 116.065C457.809 116.22 457.682 116.436 457.637 116.675L457.084 119.624C457.034 119.901 456.913 120.159 456.732 120.374C456.551 120.588 456.317 120.752 456.053 120.847C455.672 120.982 455.297 121.137 454.932 121.31C454.678 121.429 454.397 121.479 454.118 121.455C453.839 121.431 453.57 121.334 453.34 121.174L450.865 119.481C450.664 119.343 450.421 119.28 450.179 119.303C449.937 119.325 449.71 119.432 449.538 119.604L447.738 121.403C447.566 121.575 447.46 121.802 447.437 122.044C447.415 122.287 447.478 122.529 447.615 122.73L449.309 125.205C449.468 125.436 449.565 125.704 449.589 125.983C449.613 126.262 449.563 126.543 449.445 126.797C449.271 127.162 449.117 127.537 448.982 127.918C448.886 128.182 448.723 128.416 448.508 128.597C448.293 128.778 448.035 128.899 447.759 128.949L444.81 129.502C444.57 129.547 444.355 129.674 444.199 129.861C444.044 130.048 443.959 130.284 443.959 130.527V133.072C443.959 133.316 444.044 133.551 444.199 133.738C444.354 133.926 444.57 134.053 444.81 134.098L447.759 134.65C448.035 134.7 448.293 134.822 448.508 135.002C448.723 135.183 448.886 135.417 448.982 135.681C449.116 136.063 449.271 136.437 449.445 136.802C449.563 137.057 449.613 137.337 449.589 137.617C449.565 137.896 449.468 138.164 449.308 138.394L447.615 140.87C447.477 141.071 447.415 141.313 447.437 141.555C447.46 141.798 447.566 142.024 447.738 142.196L449.538 143.996C449.71 144.168 449.937 144.275 450.179 144.297C450.421 144.32 450.664 144.257 450.865 144.119L453.34 142.426C453.57 142.266 453.838 142.169 454.118 142.145C454.397 142.121 454.678 142.171 454.932 142.289C455.297 142.463 455.671 142.618 456.053 142.752C456.317 142.848 456.551 143.012 456.732 143.226C456.913 143.441 457.034 143.699 457.084 143.976L457.637 146.925C457.682 147.164 457.809 147.38 457.996 147.535C458.183 147.691 458.419 147.776 458.662 147.776H461.207C461.45 147.776 461.686 147.691 461.873 147.535C462.061 147.38 462.188 147.164 462.232 146.925L462.786 143.976C462.836 143.699 462.957 143.441 463.138 143.226C463.319 143.012 463.553 142.848 463.816 142.752C464.198 142.618 464.572 142.463 464.938 142.289C465.192 142.171 465.473 142.121 465.752 142.145C466.031 142.169 466.299 142.266 466.53 142.426L469.005 144.12C469.206 144.257 469.449 144.32 469.691 144.298C469.933 144.275 470.16 144.169 470.332 143.997L472.132 142.197C472.304 142.025 472.41 141.798 472.433 141.556C472.455 141.314 472.393 141.071 472.255 140.87L470.562 138.395C470.402 138.165 470.305 137.896 470.281 137.617C470.257 137.338 470.307 137.057 470.425 136.803C470.599 136.438 470.754 136.063 470.888 135.682C470.984 135.418 471.147 135.184 471.362 135.003C471.577 134.822 471.835 134.701 472.111 134.651L475.06 134.099C475.299 134.054 475.515 133.927 475.671 133.739C475.826 133.552 475.911 133.317 475.911 133.073V130.528C475.911 130.285 475.827 130.049 475.671 129.862C475.516 129.674 475.3 129.547 475.06 129.502ZM459.935 137.722C458.764 137.722 457.619 137.374 456.645 136.724C455.672 136.073 454.913 135.148 454.465 134.066C454.017 132.984 453.899 131.794 454.128 130.645C454.356 129.496 454.92 128.441 455.748 127.613C456.576 126.785 457.631 126.221 458.78 125.993C459.929 125.764 461.119 125.882 462.201 126.33C463.283 126.778 464.208 127.537 464.859 128.511C465.509 129.484 465.857 130.629 465.857 131.8C465.857 132.578 465.703 133.348 465.406 134.066C465.108 134.785 464.672 135.437 464.122 135.987C463.572 136.537 462.92 136.973 462.201 137.271C461.483 137.568 460.713 137.722 459.935 137.722Z" fill="#0E1117"/>
</g>
</g>
<defs>
<clipPath id="clip0_0_1">
<rect width="1500" height="237" fill="white"/>
</clipPath>
<clipPath id="clip1_0_1">
<rect width="61" height="61" fill="white" transform="translate(120.001 88)"/>
</clipPath>
<clipPath id="clip2_0_1">
<rect width="61" height="61" fill="white" transform="translate(713.001 88)"/>
</clipPath>
<clipPath id="clip3_0_1">
<rect width="61" height="61" fill="white" transform="translate(1010 88)"/>
</clipPath>
<clipPath id="clip4_0_1">
<rect width="61" height="61" fill="white" transform="translate(416.001 88)"/>
</clipPath>
</defs>
</svg>
